<ttFont>
          <CharString index="0">
            rmoveto
            190 127 165 146 16 hvcurveto
            2 11 1 11 -1 10 rrcurveto
            -101 hlineto
            -84 -15 -66 -147 -148 hhcurveto
            -135 -48 106 95 -11 hvcurveto
            -2 10 -1 12 8 vvcurveto
            -103 hlineto
            -1 -6 0 -9 -6 vvcurveto
            -160 88 -162 208 vhcurveto
            return
          </CharString>
          <CharString index="1">
            rmoveto
            414 290 412 521 -9 hvcurveto
            346 -6 -160 285 -321 hhcurveto
            -404 -307 -403 -531 10 hvcurveto
            -358 7 169 -272 317 hhcurveto
            24 23 callsubr
            -227 -128 178 366 -5 hvcurveto
            418 -6 220 366 306 hhcurveto
            234 114 -187 -352 6 hvcurveto
            -429 8 -215 -360 -307 hhcurveto
            return
          </CharString>
          <CharString index="2">
            rmoveto
            -37 45 160 -52 170 hhcurveto
            297 226 145 282 -5 hvcurveto
            -4 208 -165 111 -142 93 -162 107 -116 78 5 182 rrcurveto
            201 6 188 40 123 hhcurveto
            108 123 -28 -57 57 hvcurveto
            48 116 rlineto
            34 -48 -100 51 -198 hhcurveto
            -263 -200 -145 -251 5 hvcurveto
            4 -230 183 -122 148 -96 rrcurveto
            156 -101 87 -89 -139 vvcurveto
            -193 -174 -79 -184 -145 -153 54 40 -38 vhcurveto
            return
          </CharString>
          <CharString index="3">
            -154 -100 -175 -150 -129 hhcurveto
            -100 -57 31 134 68 11 90 13 99 hvcurveto
            17 133 44 308 23 166 rrcurveto
            -149 hlineto
            -24 -163 -44 -310 -17 -133 rrcurveto
            -13 -105 -13 -103 -60 vvcurveto
            return
          </CharString>
          <CharString index="4">
            rmoveto
            135 10 150 180 102 116 88 165 63 150 rlinecurve
            37 -253 57 -368 136 10 153 175 195 220 154 337 19 291 rlinecurve
            3 55 0 28 -4 38 rrcurveto
            -146 hlineto
            6 -39 -21 -137 -9 -72 -30 -244 -78 -169 -142 -189 -136 -174 rcurveline
            -23 238 -86 786 rlineto
            -163 hlineto
            42 -286 -44 -197 -101 -190 -125 -173 rlinecurve
            -135 -177 -21 237 -84 786 rlineto
            -166 hlineto
            117 -786 rlineto
            return
          </CharString>
          <CharString index="5">
            rmoveto
            -32 36 129 -32 129 hhcurveto
            223 167 103 202 169 -144 98 -95 72 hvcurveto
            -83 64 -91 60 121 vvcurveto
            104 90 67 144 131 82 -56 -16 12 vhcurveto
            29 140 rlineto
            17 -33 -99 27 -122 hhcurveto
            -203 -174 -104 -198 -165 110 -86 106 -83 hvcurveto
            94 -74 98 -62 -112 vvcurveto
            -121 -103 -54 -131 -131 -101 51 30 -42 vhcurveto
            return
          </CharString>
          <CharString index="6">
            -257 101 -174 217 vhcurveto
            25 23 callsubr
            -123 -66 111 222 272 153 341 302 65 69 -15 -23 51 hvcurveto
            -64 -451 -20 -185 rlineto
            -104 -59 -140 -168 -168 hhcurveto
            return
          </CharString>
          <CharString index="7">
            rmoveto
            157 140 48 30 100 hvcurveto
            54 16 44 13 39 4 82 635 rcurveline
            -430 hlineto
            -15 -121 281 -1 -54 -421 rlineto
            -43 -114 -143 -42 -114 hhcurveto
            -277 -99 277 266 -2 hvcurveto
            371 -4 191 409 391 hhcurveto
            182 115 -47 -35 59 hvcurveto
            48 137 -39 12 rlineto
            21 -67 -111 34 -185 hhcurveto
            -414 -329 -370 -549 34 callgsubr
            139 -334 360 hhcurveto
            return
          </CharString>
          <CharString index="8">
            rmoveto
            62 51 52 67 4 hvcurveto
            54 3 -36 40 -58 hhcurveto
            -57 -52 -50 -65 -3 hvcurveto
            -57 -4 40 -41 50 hhcurveto
            -421 hmoveto
            62 51 52 67 4 hvcurveto
            54 3 -36 40 -58 hhcurveto
            -57 -52 -50 -65 -3 hvcurveto
            -57 -4 40 -41 50 hhcurveto
            return
          </CharString>
          <CharString index="9">
            rmoveto
            -29 callgsubr
            97 713 rlineto
            153 106 193 149 132 hhcurveto
            105 35 -46 -109 -77 -20 -133 -21 -141 hvcurveto
            -17 -116 -42 -266 -17 -127 rrcurveto
            2 callsubr
            18 125 43 268 16 117 22 147 19 140 1 72 rrcurveto
            191 1 -67 93 -164 hhcurveto
            -172 -181 -131 -150 -118 hvcurveto
            return
          </CharString>
          <CharString index="10">
            rmoveto
            61 53 52 66 3 hvcurveto
            56 3 -35 39 -59 hhcurveto
            -51 -56 -55 callsubr
            -41 49 hhcurveto
            return
          </CharString>
          <CharString index="11">
            -107 callgsubr
            endchar
          </CharString>
          <CharString index="12">
            rmoveto
            -278 129 -171 243 180 127 113 66 51 vhcurveto
            -50 82 rlineto
            -86 -87 -85 -61 -114 hhcurveto
            -159 -83 109 241 321 192 275 217 72 72 -17 -40 50 hvcurveto
            39 128 rlineto
            29 -57 -90 12 -72 hhcurveto
            -380 -195 -408 -315 hvcurveto
            return
          </CharString>
          <CharString index="13">
            -50 hmoveto
            161 hlineto
            201 431 rlineto
            614 hlineto
            76 -431 rlineto
            -5 callsubr
            -289 1530 rlineto
            -168 hlineto
            -329 -984 rmoveto
            5 callsubr
            rlineto
            return
          </CharString>
          <CharString index="14">
            -1426 rmoveto
            -92 callsubr
            hintmask 1100011000000000
            -87 callsubr
            hintmask 1100101000000000
            -9 callsubr
            hintmask 1100011000000000
            -98 callgsubr
            return
          </CharString>
          <CharString index="15">
            -29 callgsubr
            138 1021 rlineto
            250 hlineto
            9 119 rlineto
            -243 hlineto
            21 162 rlineto
            return
          </CharString>
          <CharString index="16">
            rmoveto
            97 59 157 137 62 104 -95 97 rcurveline
            -278 -346 rlineto
            return
          </CharString>
          <CharString index="17">
            141 hlineto
            134 1073 29 288 72 -239 494 -1122 rlineto
            2 callsubr
            193 1530 rlineto
            -143 hlineto
            -134 -1096 -21 -238 -72 207 -491 1127 rlineto
            -158 hlineto
            endchar
          </CharString>
          <CharString index="18">
            148 8 callsubr
            4 -20 302 214 -78 -40 callsubr
            -61 -19 callgsubr
            hintmask 1010000100000000
            828 hmoveto
            -83 callgsubr
            hintmask 0001000010000000
            -65 callgsubr
            -931 -93 callsubr
            endchar
          </CharString>
          <CharString index="19">
            97 hmoveto
            -29 callgsubr
            98 721 rlineto
            151 108 190 146 131 hhcurveto
            104 35 -47 -109 -77 -20 -132 -21 -141 hvcurveto
            -17 -116 -43 -269 7 callsubr
            43 271 16 117 22 147 19 139 1 71 rrcurveto
            192 1 -67 94 -164 hhcurveto
            -173 -185 -135 -152 -117 hvcurveto
            44 289 return
          </CharString>
          <CharString index="20">
            18 143 86 116 125 1 69 1 38 -15 25 -17 rrcurveto
            return
          </CharString>
          <CharString index="21">
            154 422 -106 callgsubr
            return
          </CharString>
          <CharString index="22">
            rmoveto
            135 hlineto
            322 319 -63 67 -321 -270 -244 270 -67 -67 rlineto
            return
          </CharString>
          <CharString index="23">
            rmoveto
            -209 87 -76 168 168 166 131 150 107 vhcurveto
            return
          </CharString>
          <CharString index="24">
            244 -19 134 893 142 -10 -20 hstemhm
            322 156 399 145 hintmask 00000000
            hintmask 10111000
            341 100 rmoveto
            19 -73 98 -45 77 -1 rrcurveto
            173 94 78 77 75 hvcurveto
            -109 -2 57 -46 77 hhcurveto
            120 92 109 21 14 hvcurveto
            -49 85 rlineto
            -46 -39 -43 -36 -42 hhcurveto
            -35 -12 46 65 10 hvcurveto
            124 915 rlineto
            -148 hlineto
            -118 -843 rlineto
            -75 -59 -129 -107 -119 hhcurveto
            -106 -98 53 159 14 hvcurveto
            -1 80 564 9 77 vhcurveto
            hintmask 11011000
            128 17 -52 55 -74 hhcurveto
            -127 -86 -90 -21 -15 hvcurveto
            50 -88 rlineto
            25 25 40 32 40 hhcurveto
            32 2 -52 -62 -9 hvcurveto
            -188 -1266 rlineto
            141 hlineto
            endchar
          </CharString>
          <CharString index="25">
            -2 111 23 -145 154 hhcurveto
            106 110 80 94 33 hvcurveto
            -66 70 rlineto
            -45 -30 -44 -76 -80 -98 -35 148 -144 hhcurveto
            return
          </CharString>
          <CharString index="26">
            hhcurveto
            439 202 426 313 258 -101 175 -217 -167 -139 -114 -103 -75 hvcurveto
            35 208 58 490 -5 callgsubr
            -54 -1508 rmoveto
            88 655 rlineto
            102 64 142 154 163 hhcurveto
            122 68 -110 -224 -257 -151 -355 -312 -64 -68 13 22 -52 hvcurveto
            return
          </CharString>
          <CharString index="27">
            219 -265 73 53 -205 348 rlineto
            -136 hlineto
            return
          </CharString>
          <CharString index="28">
            61 -159 31 -65 21 -33 172 -2 rcurveline
            -32 43 -34 83 -92 212 -31 82 -88 197 -68 62 231 62 144 202 -5 252 rrcurveto
            230 -4 -166 122 -301 hhcurveto
            return
          </CharString>
          <CharString index="29">
            1255 rmoveto
            135 hlineto
            335 328 -63 67 -333 -279 -249 279 -67 -67 rlineto
            return
          </CharString>
          <CharString index="30">
            59 rmoveto
            -266 -35 -53 -204 -190 hhcurveto
            -28 -34 10 10 -13 hvcurveto
            -40 -86 rlineto
            -19 25 46 -19 65 hhcurveto
            217 138 192 328 44 hvcurveto
            153 1139 rlineto
            -149 hlineto
            return
          </CharString>
          <CharString index="31">
            -103 callgsubr
            endchar
          </CharString>
          <CharString index="32">
            rmoveto
            56 50 -273 349 -94 -97 62 -104 152 -140 97 -58 rlinecurve
            return
          </CharString>
          <CharString index="33">
            116 282 rmoveto
            -104 callgsubr
            return
          </CharString>
          <CharString index="34">
            -2 -16 58 -85 rlineto
            127 65 183 149 286 vvcurveto
            142 -86 139 -84 33 vhcurveto
            return
          </CharString>
          <CharString index="35">
            -99 callgsubr
            endchar
          </CharString>
          <CharString index="36">
            rmoveto
            173 160 87 186 158 -104 92 -166 -158 -184 -88 -188 -155 101 -92 178 hvcurveto
            6 83 rmoveto
            -107 -71 68 91 150 120 47 103 106 67 -61 -92 -157 -106 -46 -112 hvcurveto
            return
          </CharString>
          <CharString index="37">
            rmoveto
            156 hlineto
            47 348 rlineto
            265 hlineto
            15 134 -263 -8 40 293 -155 -18 -39 -280 -404 -12 98 126 485 628 -101 78 rlineto
            -38 hlineto
            -610 -867 28 -74 rlineto
            525 hlineto
            return
          </CharString>
          <CharString index="38">
            21 -58 callsubr
            return
          </CharString>
          <CharString index="39">
            1603 -91 callsubr
            return
          </CharString>
          <CharString index="40">
            hhcurveto
            194 157 123 79 57 hvcurveto
            return
          </CharString>
          <CharString index="41">
            rmoveto
            -29 -135 -110 -152 -194 -53 28 -68 rcurveline
            201 35 168 89 82 274 29 95 90 689 72 671 rrcurveto
            -151 hlineto
            -50 -435 -55 -623 -81 -387 rrcurveto
            return
          </CharString>
          <CharString index="42">
            rmoveto
            330 270 rlineto
            hintmask 00001010
            -80 callsubr
            hintmask 00010010
            -340 -347 rlineto
            endchar
          </CharString>
          <CharString index="43">
            155 21 -21 431 115 849 135 0 -20 return
          </CharString>
          <CharString index="44">
            rmoveto
            120 hlineto
            215 1290 rlineto
            -172 hlineto
            -267 -1693 rmoveto
            -67 -9 44 -35 54 hhcurveto
            68 57 43 75 11 hvcurveto
            59 8 -26 43 -72 hhcurveto
            -65 -61 -48 -70 -9 hvcurveto
            return
          </CharString>
          <CharString index="45">
            55 119 15 -115 129 -734 rlineto
            return
          </CharString>
          <CharString index="46">
            28 0 120 602 118 573 116 return
          </CharString>
          <CharString index="47">
            rmoveto
            -57 -1 40 -35 50 hhcurveto
            73 46 45 83 2 hvcurveto
            return
          </CharString>
          <CharString index="48">
            rmoveto
            81 59 154 201 50 107 -110 89 rcurveline
            -248 -414 rlineto
            -353 -42 rmoveto
            89 71 133 180 54 117 -110 88 rcurveline
            -238 -414 rlineto
            return
          </CharString>
          <CharString index="49">
            -21 1530 -20 return
          </CharString>
          <CharString index="50">
            -5 callsubr
            62 497 231 252 53 -90 89 -163 83 -152 rlinecurve
            95 -173 78 -150 20 -21 rrcurveto
            181 hlineto
            -61 83 -67 120 -81 142 -99 171 -103 192 -91 146 622 676 rcurveline
            -178 hlineto
            -746 -828 105 828 -35 callsubr
            endchar
          </CharString>
          <CharString index="51">
            rmoveto
            782 hlineto
            5 122 -602 -25 rlineto
            304 188 312 175 295 vvcurveto
            113 -115 145 -240 -3 vhcurveto
            -191 -3 -154 -114 -58 -80 54 -72 rcurveline
            91 88 117 61 130 hhcurveto
            134 89 -62 -116 -252 -506 -283 -184 -105 hvcurveto
            return
          </CharString>
          <CharString index="52">
            -50 -65 -3 hvcurveto
            -57 -4 39 return
          </CharString>
          <CharString index="53">
            743 hlineto
            16 130 -593 -4 177 1404 -35 callsubr
            return
          </CharString>
          <CharString index="54">
            20 -16 116 -79 -21 1046 110 return
          </CharString>
          <CharString index="55">
            2 callsubr
            207 1637 rlineto
            -148 hlineto
            70 -1009 rmoveto
            419 -625 rlineto
            173 hlineto
            -420 602 95 47 156 98 93 126 rlinecurve
            65 87 39 86 8 91 rrcurveto
            -143 hlineto
            -32 -101 -51 -85 -68 -78 -88 -105 -141 -82 -105 -60 1 -1 rcurveline
            endchar
          </CharString>
          <CharString index="56">
            151 hlineto
            82 658 rlineto
            -1 73 170 -1 19 hhcurveto
            91 -2 87 -208 66 -188 rrcurveto
            return
          </CharString>
          <CharString index="57">
            -36 41 rlineto
            -723 hlineto
            -17 -119 rlineto
            583 hlineto
            -167 -183 -621 -792 rlineto
            return
          </CharString>
          <CharString index="58">
            -60 callsubr
            hintmask 10100000
            -20 callsubr
            hintmask 01100000
            -27 callgsubr
          </CharString>
          <CharString index="59">
            rmoveto
            2 callsubr
            222 1634 rlineto
            -148 hlineto
            return
          </CharString>
          <CharString index="60">
            rmoveto
            173 160 80 186 157 -104 94 -166 -158 -184 -83 -189 -155 101 -90 178 hvcurveto
            6 82 rmoveto
            -107 -71 68 90 150 120 43 103 106 67 -62 -92 -158 -106 -39 -112 hvcurveto
            endchar
          </CharString>
          <CharString index="61">
            558 -1021 rmoveto
            -92 callsubr
            return
          </CharString>
          <CharString index="62">
            rmoveto
            -35 callgsubr
            hintmask 11001000
            843 1195 rlineto
            hintmask 10101000
            -50 callgsubr
            endchar
          </CharString>
          <CharString index="63">
            297 0 130 hstem
            -20 1339 vstem
            -8 hmoveto
            1310 hlineto
            17 26 -556 1482 rlineto
            -30 hlineto
            -753 -1486 rlineto
            238 108 rmoveto
            513 1054 377 -1054 rlineto
            endchar
          </CharString>
          <CharString index="64">
            251 459 rlineto
            520 hlineto
            -58 -459 6 callgsubr
            -475 -6 74 579 614 -7 6 120 rlineto
            -1305 hlineto
            return
          </CharString>
          <CharString index="65">
            39 -505 113 376 116 946 110 return
          </CharString>
          <CharString index="66">
            2 16 -58 85 rlineto
            -127 -65 -183 -149 -286 vvcurveto
            -142 86 -139 84 -33 vhcurveto
            return
          </CharString>
          <CharString index="67">
            116 -5 -21 -4 callsubr
            return
          </CharString>
          <CharString index="68">
            30 callgsubr
            90 714 rlineto
            726 hlineto
            -90 -714 rlineto
            151 hlineto
            192 1530 -35 callsubr
            -89 -701 rlineto
            -726 hlineto
            89 701 -35 callsubr
            return
          </CharString>
          <CharString index="69">
            158 361 -24 -409 -49 -1022 rlineto
            153 hlineto
            44 1530 rlineto
            -218 hlineto
            -460 -1070 -92 -234 -31 236 -173 1068 rlineto
            -194 hlineto
            endchar
          </CharString>
          <CharString index="70">
            rmoveto
            583 -399 53 85 -452 377 556 383 -29 89 -695 -415 rlineto
            return
          </CharString>
          <CharString index="71">
            -141 -34 callgsubr
            return
          </CharString>
          <CharString index="72">
            rlineto
            -150 hlineto
            return
          </CharString>
          <CharString index="73">
            -75 callsubr
            endchar
          </CharString>
          <CharString index="74">
            123 hlineto
            681 1530 rlineto
            -123 hlineto
            endchar
          </CharString>
          <CharString index="75">
            -115 -83 -16 -112 hhcurveto
            -76 hlineto
            56 -751 rmoveto
            return
          </CharString>
          <CharString index="76">
            -21 22 -21 656 121 653 116 -16 -20 return
          </CharString>
          <CharString index="77">
            243 8 rmoveto
            -13 55 64 -11 54 hhcurveto
            439 202 422 317 258 -101 175 -217 -169 -139 -117 -104 -74 hvcurveto
            return
          </CharString>
          <CharString index="78">
            -5 callsubr
            69 540 rlineto
            -4 30 89 -10 93 hhcurveto
            364 257 238 393 -7 hvcurveto
            265 -4 -164 124 -289 hhcurveto
            return
          </CharString>
          <CharString index="79">
            -103 -118 12 callgsubr
          </CharString>
          <CharString index="80">
            hstemhm
            113 152 return
          </CharString>
          <CharString index="81">
            -11 -77 298 -17 -806 -1436 rlineto
            477 575 rmoveto
            hintmask 11101010
            466 850 111 -5 -107 -845 rlineto
            endchar
          </CharString>
          <CharString index="82">
            94 751 rlineto
            9 70 103 11 64 hhcurveto
            222 108 -100 -190 -2 hvcurveto
            -4 -319 -154 -177 -299 -2 rrcurveto
            return
          </CharString>
          <CharString index="83">
            116 86 55 39 44 vhcurveto
            -39 78 rlineto
            -38 -49 -55 -21 -55 hhcurveto
            return
          </CharString>
          <CharString index="84">
            -199 -16 114 946 112 return
          </CharString>
          <CharString index="85">
            -62 -502 122 1520 -20 return
          </CharString>
          <CharString index="86">
            -66 -16 118 1329 116 return
          </CharString>
          <CharString index="87">
            52 1 -25 40 -65 hhcurveto
            return
          </CharString>
          <CharString index="88">
            73 581 rlineto
            7 62 113 6 30 hhcurveto
            241 89 -88 -152 2 hvcurveto
            -229 3 -169 -125 -210 hhcurveto
            return
          </CharString>
          <CharString index="89">
            177 -15 callsubr
          </CharString>
          <CharString index="90">
            47 0 125 1282 122 -65 66 return
          </CharString>
          <CharString index="91">
            rmoveto
            -42 callgsubr
            return
          </CharString>
          <CharString index="92">
            -97 callsubr
            endchar
          </CharString>
          <CharString index="93">
            -69 callsubr
            hstem
            return
          </CharString>
          <CharString index="94">
            1748 -73 callgsubr
            return
          </CharString>
          <CharString index="95">
            523 7 -21 1154 -20 return
          </CharString>
          <CharString index="96">
            220 -199 -21 return
          </CharString>
          <CharString index="97">
            hstemhm
            112 157 return
          </CharString>
          <CharString index="98">
            38 121 rlineto
            return
          </CharString>
          <CharString index="99">
            132 -1 70 -84 -5 -96 rrcurveto
            -181 -6 -200 -65 -151 hhcurveto
            -68 -1 -111 17 -72 39 rrcurveto
            return
          </CharString>
          <CharString index="100">
            22 205 rlineto
            -134 hlineto
            -219 -1655 rlineto
            -29 callgsubr
            85 644 rmoveto
            86 651 rlineto
            return
          </CharString>
          <CharString index="101">
            -83 -83 -42 hvcurveto
            return
          </CharString>
          <CharString index="102">
            150 hlineto
            return
          </CharString>
          <CharString index="103">
            hstemhm
            152 737 return
          </CharString>
          <CharString index="104">
            rmoveto
            108 hlineto
            154 721 rlineto
            -174 hlineto
            return
          </CharString>
          <CharString index="105">
            44 37 43 63 80 hhcurveto
            return
          </CharString>
          <CharString index="106">
            43 37 44 65 75 hhcurveto
            return
          </CharString>
          <CharString index="107">
            386 293 141 363 -6 hvcurveto
            -3 173 -141 118 -168 19 rrcurveto
            return
          </CharString>
          <CharString index="108">
            rmoveto
            3 callsubr
          </CharString>
          <CharString index="109">
            149 hlineto
            return
          </CharString>
          <CharString index="110">
            -54 callsubr
            endchar
          </CharString>
          <CharString index="111">
            93 87 4 31 rlineto
            -70 50 -32 96 80 vvcurveto
            return
          </CharString>
          <CharString index="112">
            341 730 return
          </CharString>
          <CharString index="113">
            890 hlineto
            11 127 -737 -13 78 614 479 -11 9 127 return
          </CharString>
          <CharString index="114">
            -17 -127 rrcurveto
            2 callsubr
            19 125 return
          </CharString>
          <CharString index="115">
            21 -10 callgsubr
            return
          </CharString>
          <CharString index="116">
            123 24 124 hstemhm
            return
          </CharString>
          <CharString index="117">
            110 946 116 return
          </CharString>
          <CharString index="118">
            -21 1414 115 return
          </CharString>
          <CharString index="119">
            hstemhm
            79 154 return
          </CharString>
          <CharString index="120">
            121 hmoveto
            return
          </CharString>
          <CharString index="121">
            58 43 75 10 hvcurveto
            59 8 -25 43 -73 hhcurveto
            -58 -54 -48 -70 -9 hvcurveto
            return
          </CharString>
          <CharString index="122">
            -46 -166 -1 3 -56 hvcurveto
            return
          </CharString>
          <CharString index="123">
            21 callgsubr
            949 return
          </CharString>
          <CharString index="124">
            hstemhm
            145 344 return
          </CharString>
          <CharString index="125">
            197 122 130 79 42 vhcurveto
            return
          </CharString>
          <CharString index="126">
            hstemhm
            98 154 return
          </CharString>
          <CharString index="127">
            1249 return
          </CharString>
          <CharString index="128">
            hlineto
            -14 -121 rlineto
            225 hlineto
            161 5 -28 -181 rlineto
            return
          </CharString>
          <CharString index="129">
            -256 -186 1966 hstem
            375 131 vstem
            375 return
          </CharString>
          <CharString index="130">
            116 rmoveto
            return
          </CharString>
          <CharString index="131">
            153 hlineto
            243 1037 77 394 50 -386 rlineto
            return
          </CharString>
          <CharString index="132">
            70 21 -21 526 119 788 113 -16 -20 return
          </CharString>
          <CharString index="133">
            -108 -89 -16 -110 hhcurveto
            -88 hlineto
            41 -868 rmoveto
            return
          </CharString>
          <CharString index="134">
            -332 21 -21 998 158 return
          </CharString>
          <CharString index="135">
            -102 -99 -15 -1 -94 hvcurveto
            -82 hlineto
            64 -683 rmoveto
            return
          </CharString>
          <CharString index="136">
            -55 hhcurveto
            -51 -37 28 52 return
          </CharString>
          <CharString index="137">
            128 1402 -20 return
          </CharString>
          <CharString index="138">
            -67 callsubr
            -43 return
          </CharString>
          <CharString index="139">
            -90 137 116 86 55 39 45 vhcurveto
            -40 return
          </CharString>
          <CharString index="140">
            -515 104 1555 -20 return
          </CharString>
          <CharString index="141">
            -21 1540 -20 return
          </CharString>
          <CharString index="142">
            148 1080 151 hintmask 00000000
            hintmask 10111000
            return
          </CharString>
        <CharString name=".notdef">
          735 0 231 -210 -21 hstemhm
          220 241 925 239 hintmask 00000000
          hintmask 01110000
          220 hmoveto
          1405 1416 -1405 hlineto
          242 -1046 rmoveto
          350 335 -351 356 116 119 346 -363 342 362 121 -119 -355 -351 355 -362 rlineto
          hintmask 10110000
          -115 -116 -351 364 -337 -363 rlineto
          endchar
        </CharString>
        <CharString name=".null">
          endchar
        </CharString>
        <CharString name="A">
          -64 callsubr
          -3 callgsubr
          hintmask 00000000
          hintmask 11011000
          -94 callsubr
          hintmask 11101000
          -62 callsubr
          endchar
        </CharString>
        <CharString name="AE">
          14 callgsubr
          -107 107 -85 85 hstemhm
          -107 1824 hintmask 00000000
          hintmask 11110010
          55 hmoveto
          -43 callsubr
          hintmask 11100110
          -26 callsubr
        </CharString>
        <CharString name="AEacute">
          14 callgsubr
          -85 85 146 -21 hstemhm
          -107 1824 -706 373 hintmask 00000101
          1068 -68 callsubr
          hintmask 00000000
          -956 -1654 rmoveto
          -43 callsubr
          hintmask 11110010
          -26 callsubr
        </CharString>
        <CharString name="Aacute">
          -64 callsubr
          165 -21 -3 callgsubr
          -411 373 hintmask 00000000
          hintmask 11010100
          -94 callsubr
          hintmask 11100100
          -62 callsubr
          hintmask 00001010
          -108 1057 -91 callsubr
          endchar
        </CharString>
        <CharString name="Abreve">
          -64 callsubr
          127 112 -3 callgsubr
          -646 104 hintmask 00000000
          hintmask 11010100
          -94 callsubr
          hintmask 11100100
          -62 callsubr
          hintmask 00001010
          -104 1091 -107 callsubr
          endchar
        </CharString>
        <CharString name="Acircumflex">
          -64 callsubr
          163 -21 22 -21 -3 callgsubr
          -690 681 hintmask 00000000
          hintmask 11010010
          -94 callsubr
          hintmask 11100010
          -62 callsubr
          hintmask 00000000
          -385 1048 rmoveto
          330 270 rlineto
          hintmask 00000101
          -80 callsubr
          hintmask 00001001
          -340 -347 rlineto
          endchar
        </CharString>
        <CharString name="Adieresis">
          -64 callsubr
          211 214 -3 callgsubr
          -649 -11 callgsubr
          hintmask 00000000
          hintmask 11010100
          -94 callsubr
          hintmask 11100100
          -62 callsubr
          hintmask 00001011
          102 1175 -72 callsubr
        </CharString>
        <CharString name="Agrave">
          -64 callsubr
          162 -21 -3 callgsubr
          -642 367 hintmask 00000000
          hintmask 11010100
          -94 callsubr
          hintmask 11100100
          -62 callsubr
          hintmask 00001010
          -85 1055 -34 callsubr
        </CharString>
        <CharString name="Amacron">
          -64 callsubr
          238 114 -3 callgsubr
          -626 514 hintmask 00000000
          hintmask 11010100
          -94 callsubr
          hintmask 11100100
          -62 callsubr
          hintmask 00001010
          -380 1202 -73 callgsubr
          endchar
        </CharString>
        <CharString name="Aogonek">
          155 -436 114 343 -21 22 -21 430 115 849 135 0 -20 hstemhm
          695 195 -148 20 hintmask 00000000
          hintmask 11010101
          -50 hmoveto
          161 hlineto
          201 431 rlineto
          614 hlineto
          hintmask 10110101
          76 -430 rlineto
          -89 -49 -171 -99 -140 vvcurveto
          -58 51 -91 137 116 85 56 38 45 vhcurveto
          -40 78 rlineto
          hintmask 11010110
          -38 -49 -54 -20 15 callgsubr
          154 96 80 52 hvcurveto
          28 hlineto
          hintmask 10110101
          -289 1530 rlineto
          hintmask 10110110
          -168 hlineto
          -329 -984 rmoveto
          hintmask 10111001
          5 callsubr
          -62 callsubr
          endchar
        </CharString>
        <CharString name="Aring">
          155 21 -21 431 115 1370 84 hstemhm
          498 107 396 151 -150 108 hintmask 00000000
          hintmask 11110100
          -50 hmoveto
          161 hlineto
          201 431 rlineto
          614 hlineto
          76 -431 rlineto
          hintmask 11111000
          -5 callsubr
          -282 1491 rlineto
          hintmask 11110100
          133 25 107 81 152 vvcurveto
          157 -104 94 -166 -158 -184 -83 -189 -124 64 -82 115 -28 vhcurveto
          106 71 rmoveto
          -107 -71 68 90 150 120 43 103 106 67 -62 -92 -158 -106 -39 -112 hvcurveto
          -417 -1019 rmoveto
          5 callsubr
          -62 callsubr
          endchar
        </CharString>
        <CharString name="Atilde">
          -64 callsubr
          183 9 callsubr
          -50 1202 -717 764 hintmask 00000000
          hintmask 11010010
          -94 callsubr
          hintmask 11100010
          -62 callsubr
          hintmask 00000000
          -404 1187 rmoveto
          hintmask 00001001
          -2 callsubr
          hintmask 00001101
          -82 callsubr
          hintmask 00001001
          -13 callgsubr
          endchar
        </CharString>
        <CharString name="B">
          18 callgsubr
          hstemhm
          971 160 -143 151 hintmask 00000000
          hintmask 01110100
          13 callsubr
          70 hlineto
          71 119 -14 77 hhcurveto
          hintmask 10110100
          0 callsubr
          hintmask 10110010
          3 callgsubr
          hintmask 10101100
          28 callsubr
          hintmask 10110010
          -19 callsubr
          hintmask 10101100
          -72 -91 -3 3 -71 hvcurveto
          hintmask 10110100
          -38 callgsubr
        </CharString>
        <CharString name="C">
          -21 callgsubr
          hstem
          110 154 vstem
          622 -15 -97 callgsubr
          endchar
        </CharString>
        <CharString name="CR">
          endchar
        </CharString>
        <CharString name="Cacute">
          -21 callgsubr
          129 -21 hstemhm
          110 154 495 373 hintmask 11010000
          622 -15 -97 callgsubr
          hintmask 00101000
          194 1618 -91 callsubr
          endchar
        </CharString>
        <CharString name="Ccaron">
          -21 callgsubr
          68 386 hstemhm
          110 154 230 695 hintmask 11010000
          622 -15 -97 callgsubr
          hintmask 00101000
          110 1629 -4 callgsubr
        </CharString>
        <CharString name="Ccedilla">
          31 -463 126 325 117 1315 126 hstem
          110 154 328 131 vstem
          334 -319 rmoveto
          -67 callgsubr
          70 -11 55 -17 42 hvcurveto
          188 11 105 53 50 31 -23 128 rcurveline
          -39 -55 -146 -67 -165 hhcurveto
          -270 -110 249 288 -5 hvcurveto
          349 -7 169 429 392 hhcurveto
          161 73 -44 -18 42 hvcurveto
          53 126 -51 16 rlineto
          22 -67 -76 24 -129 hhcurveto
          -408 -316 -371 -548 10 hvcurveto
          5 -300 117 -320 352 -21 rrcurveto
          6 -38 2 -50 -42 -45 callgsubr
          endchar
        </CharString>
        <CharString name="Ccircumflex">
          -21 callgsubr
          127 -9 callgsubr
          110 154 216 681 hintmask 11001000
          622 -15 -97 callgsubr
          hintmask 00000000
          -83 1609 -75 callgsubr
        </CharString>
        <CharString name="Cdotaccent">
          -21 callgsubr
          161 23 callgsubr
          110 154 467 201 hintmask 00101000
          815 1707 -97 callsubr
          hintmask 11010000
          -193 -1722 -97 callgsubr
          endchar
        </CharString>
        <CharString name="D">
          -12 callgsubr
          hstemhm
          1142 156 hintmask 00000000
          hintmask 01101000
          13 callsubr
          -22 callgsubr
          hintmask 10101000
          -70 callgsubr
          hintmask 10011000
          -20 callgsubr
          -27 -1405 rmoveto
          hintmask 10101000
          162 1290 -72 callgsubr
          hintmask 10011000
          -25 callgsubr
        </CharString>
        <CharString name="DC1">
          endchar
        </CharString>
        <CharString name="DC2">
          endchar
        </CharString>
        <CharString name="DC3">
          endchar
        </CharString>
        <CharString name="DC4">
          endchar
        </CharString>
        <CharString name="DEL">
          endchar
        </CharString>
        <CharString name="DLE">
          endchar
        </CharString>
        <CharString name="Dcaron">
          -12 callgsubr
          104 386 hstemhm
          455 695 -8 156 hintmask 00001100
          693 1614 -85 callsubr
          hintmask 00000000
          -334 -1933 rmoveto
          -22 callgsubr
          hintmask 01100010
          -70 callgsubr
          hintmask 10100010
          -20 callgsubr
          -27 -1405 rmoveto
          hintmask 10010010
          162 1290 -72 callgsubr
          hintmask 10100010
          -25 callgsubr
        </CharString>
        <CharString name="Dcroat">
          -62 callgsubr
          -161 hlineto
          -12 -100 rlineto
          160 hlineto
          74 -607 rmoveto
          76 607 rlineto
          429 hlineto
          12 100 rlineto
          -429 hlineto
          hintmask 10110100
          74 583 -72 callgsubr
          hintmask 10101100
          -25 callgsubr
        </CharString>
        <CharString name="Delta">
          -44 callsubr
        </CharString>
        <CharString name="E">
          -61 callsubr
          hstem
          121 949 vstem
          13 callsubr
          -93 callgsubr
          endchar
        </CharString>
        <CharString name="Eacute">
          -61 callsubr
          146 -21 16 callsubr
          -411 373 hintmask 00010100
          716 -68 callsubr
          hintmask 11101000
          -538 -1654 rmoveto
          -93 callgsubr
          endchar
        </CharString>
        <CharString name="Ebreve">
          -61 callsubr
          108 112 16 callsubr
          -646 104 hintmask 00010100
          720 -89 callgsubr
          hintmask 11101000
          -599 -1637 rmoveto
          -93 callgsubr
          endchar
        </CharString>
        <CharString name="Ecaron">
          -61 callsubr
          85 386 16 callsubr
          -677 695 hintmask 00010100
          631 1614 -85 callsubr
          hintmask 11101000
          -272 -1933 rmoveto
          -93 callgsubr
          endchar
        </CharString>
        <CharString name="Ecircumflex">
          -61 callsubr
          144 -21 22 -21 16 callsubr
          -690 681 hintmask 11100100
          13 callsubr
          -93 callgsubr
          hintmask 00000000
          125 64 -65 callsubr
        </CharString>
        <CharString name="Edieresis">
          -61 callsubr
          192 214 16 callsubr
          -650 -11 callgsubr
          hintmask 00010110
          925 1721 -99 callgsubr
          hintmask 11101000
          -384 -1721 rmoveto
          -93 callgsubr
          endchar
        </CharString>
        <CharString name="Edotaccent">
          -61 callsubr
          178 213 16 callsubr
          -440 201 hintmask 00010100
          714 1707 -97 callsubr
          hintmask 11101000
          -593 -1707 rmoveto
          -93 callgsubr
          endchar
        </CharString>
        <CharString name="Egrave">
          -61 callsubr
          143 -21 16 callsubr
          -642 367 hintmask 00010100
          739 1601 -75 callsubr
          hintmask 11101000
          -618 -1601 rmoveto
          -93 callgsubr
          endchar
        </CharString>
        <CharString name="Emacron">
          -61 callsubr
          219 114 16 callsubr
          -627 514 hintmask 00010100
          443 -13 callsubr
          hintmask 11101000
          -326 -1862 rmoveto
          -93 callgsubr
          endchar
        </CharString>
        <CharString name="Eng">
          378 -14 callsubr
          121 1212 vstem
          13 callsubr
          141 hlineto
          134 1073 29 288 72 -239 489 -1111 -45 -114 -114 -100 -154 -44 rlinecurve
          28 -68 197 35 171 87 68 193 rlinecurve
          3 hlineto
          193 1530 rlineto
          -143 hlineto
          -134 -1096 -21 -238 -72 207 -491 1127 rlineto
          -158 hlineto
          endchar
        </CharString>
        <CharString name="Eogonek">
          28 -436 114 322 120 602 118 573 116 hstem
          450 258 247 112 vstem
          13 callsubr
          702 hlineto
          -90 -50 -173 -99 -138 vvcurveto
          -58 51 -91 137 116 86 56 38 44 vhcurveto
          -39 78 rlineto
          -38 -49 -55 -20 15 callgsubr
          160 96 79 52 hvcurveto
          64 -95 callgsubr
          endchar
        </CharString>
        <CharString name="Eth">
          -62 callgsubr
          -162 hlineto
          -12 -100 rlineto
          161 hlineto
          74 -607 rmoveto
          76 607 rlineto
          428 hlineto
          12 100 rlineto
          -428 hlineto
          hintmask 10110100
          74 583 -72 callgsubr
          hintmask 10101100
          -25 callgsubr
        </CharString>
        <CharString name="Euro">
          271 -16 113 465 108 247 108 407 114 hstem
          234 160 vstem
          26 562 rmoveto
          211 hlineto
          -289 22 135 -289 311 hhcurveto
          201 173 55 72 63 hvcurveto
          -43 104 rlineto
          -61 -84 -115 -57 -173 hhcurveto
          -221 -97 195 270 -14 hvcurveto
          569 hlineto
          15 108 rlineto
          -585 hlineto
          2 87 8 83 15 77 rrcurveto
          594 hlineto
          15 108 rlineto
          -583 hlineto
          248 74 151 159 224 hhcurveto
          160 105 -35 -26 36 hvcurveto
          49 121 rlineto
          23 -71 -90 31 -148 hhcurveto
          -296 -245 -197 -324 -105 hvcurveto
          -198 hlineto
          -16 -108 rlineto
          186 hlineto
          -17 -77 -9 -83 -1 -87 rrcurveto
          -192 hlineto
          endchar
        </CharString>
        <CharString name="F">
          33 callgsubr
          hstem
          121 972 vstem
          121 hmoveto
          -24 callgsubr
        </CharString>
        <CharString name="G">
          -32 callgsubr
          hstem
          112 153 vstem
          616 -17 -100 callsubr
          endchar
        </CharString>
        <CharString name="Gbreve">
          -32 callgsubr
          91 112 hstemhm
          112 153 291 104 hintmask 00010100
          852 -89 callgsubr
          hintmask 11101000
          -236 -1654 -100 callsubr
          endchar
        </CharString>
        <CharString name="Gcircumflex">
          -32 callgsubr
          127 -9 callgsubr
          112 153 247 681 hintmask 11100100
          616 -17 -100 callsubr
          hintmask 00000000
          -45 1611 -65 callsubr
        </CharString>
        <CharString name="Gcommaaccent">
          230 -539 -21 543 118 506 121 696 122 hstemhm
          112 153 346 145 hintmask 10000100
          543 -143 -101 callgsubr
          hintmask 01111000
          -21 35 -100 callsubr
          endchar
        </CharString>
        <CharString name="Gdotaccent">
          -32 callgsubr
          161 23 callgsubr
          112 153 497 201 hintmask 00010100
          846 1707 -97 callsubr
          hintmask 11101000
          -230 -1724 -100 callsubr
          endchar
        </CharString>
        <CharString name="H">
          32 callgsubr
          hstem
          121 1219 vstem
          -39 callsubr
          endchar
        </CharString>
        <CharString name="HT">
          endchar
        </CharString>
        <CharString name="Hbar">
          300 21 -21 610 115 311 115 379 -20 hstem
          56 1460 vstem
          30 callgsubr
          77 610 rlineto
          726 hlineto
          -77 -610 rlineto
          151 hlineto
          130 1036 rlineto
          227 hlineto
          11 115 rlineto
          -224 hlineto
          48 379 -35 callsubr
          -48 -379 rlineto
          -726 hlineto
          48 379 -35 callsubr
          -48 -379 rlineto
          -199 hlineto
          -11 -115 rlineto
          195 hlineto
          111 -311 rmoveto
          39 311 rlineto
          726 hlineto
          -39 -311 rlineto
          endchar
        </CharString>
        <CharString name="Hcircumflex">
          32 callgsubr
          163 -9 callgsubr
          121 1219 -838 681 hintmask 11100100
          -39 callsubr
          hintmask 00000000
          247 64 -65 callsubr
        </CharString>
        <CharString name="I">
          -538 -14 callsubr
          145 344 vstem
          -77 callgsubr
          endchar
        </CharString>
        <CharString name="IJ">
          46 -69 callsubr
          17 callsubr
          -86 670 hintmask 11100000
          -77 callgsubr
          hintmask 01010000
          398 -1445 -66 callsubr
          endchar
        </CharString>
        <CharString name="Iacute">
          -538 -69 callsubr
          165 -21 17 callsubr
          -112 373 hintmask 11010000
          -77 callgsubr
          hintmask 00101000
          96 73 -91 callsubr
          endchar
        </CharString>
        <CharString name="Ibreve">
          -538 -69 callsubr
          127 112 hstemhm
          142 104 -101 344 hintmask 11001000
          -77 callgsubr
          hintmask 00110000
          100 107 -107 callsubr
          endchar
        </CharString>
        <CharString name="Icircumflex">
          -538 -69 callsubr
          163 -9 callgsubr
          98 681 -634 344 hintmask 11000100
          -77 callgsubr
          hintmask 00000000
          -181 64 rmoveto
          330 270 rlineto
          hintmask 00011000
          -80 callsubr
          hintmask 00101000
          -340 -347 rlineto
          endchar
        </CharString>
        <CharString name="Idieresis">
          -538 -69 callsubr
          211 13 callgsubr
          139 202 -196 344 69 203 hintmask 11001000
          -77 callgsubr
          hintmask 00110100
          306 191 -72 callsubr
        </CharString>
        <CharString name="Idotaccent">
          -538 -69 callsubr
          197 213 17 callsubr
          -140 201 hintmask 11010000
          -77 callgsubr
          hintmask 00101000
          95 -18 callsubr
        </CharString>
        <CharString name="Igrave">
          -538 -69 callsubr
          162 -21 17 callsubr
          -343 367 hintmask 11010000
          -77 callgsubr
          hintmask 00101000
          119 71 -34 callsubr
        </CharString>
        <CharString name="Imacron">
          -538 -69 callsubr
          238 114 17 callsubr
          -328 514 hintmask 11010000
          -77 callgsubr
          hintmask 00101000
          -177 218 -73 callgsubr
          endchar
        </CharString>
        <CharString name="Iogonek">
          -538 -436 114 343 -58 callsubr
          hstem
          -122 148 vstem
          145 2 rmoveto
          -89 -49 -178 -100 -140 vvcurveto
          -58 50 -91 137 116 86 56 38 45 vhcurveto
          -40 78 rlineto
          -38 -49 -54 -20 15 callgsubr
          159 96 80 52 hvcurveto
          31 hlineto
          193 1530 rlineto
          -151 hlineto
          endchar
        </CharString>
        <CharString name="Itilde">
          -538 -69 callsubr
          183 9 callsubr
          71 764 -690 344 hintmask 11000100
          -77 callgsubr
          hintmask 00000000
          -200 203 rmoveto
          hintmask 00101000
          -2 callsubr
          hintmask 00111000
          -82 callsubr
          hintmask 00101000
          -13 callgsubr
          endchar
        </CharString>
        <CharString name="J">
          -526 1530 -20 hstem
          -169 670 vstem
          164 85 -66 callsubr
          endchar
        </CharString>
        <CharString name="Jcircumflex">
          -526 1530 -20 163 -9 callgsubr
          -169 670 -393 681 hintmask 10010000
          164 85 -66 callsubr
          hintmask 00000000
          3 1509 rmoveto
          330 270 rlineto
          hintmask 00101000
          -80 callsubr
          hintmask 01001000
          -340 -347 rlineto
          endchar
        </CharString>
        <CharString name="K">
          135 -14 callsubr
          121 1162 vstem
          121 hmoveto
          -57 callsubr
        </CharString>
        <CharString name="Kcommaaccent">
          135 -537 -21 579 -58 callsubr
          21 callgsubr
          1162 -687 145 hintmask 10001000
          528 -36 callsubr
          -501 50 rmoveto
          -57 callsubr
        </CharString>
        <CharString name="L">
          -132 0 30 callsubr
          hstem
          121 759 vstem
          13 callsubr
          3 callsubr
        </CharString>
        <CharString name="LF">
          endchar
        </CharString>
        <CharString name="Lacute">
          -132 0 30 callsubr
          167 -21 21 callgsubr
          759 -498 373 hintmask 00101000
          439 1605 -91 callsubr
          hintmask 11010000
          -261 -1656 1 callsubr
        </CharString>
        <CharString name="Lcaron">
          -132 0 128 847 642 -87 -20 21 callgsubr
          759 -16 139 hintmask 10110000
          13 callsubr
          -54 callsubr
          hintmask 01001000
          561 -555 -85 callgsubr
        </CharString>
        <CharString name="Lcommaaccent">
          -132 -537 -21 558 30 callsubr
          21 callgsubr
          759 -385 145 hintmask 10001000
          427 -36 callsubr
          -400 50 1 callsubr
        </CharString>
        <CharString name="Ldot">
          -44 0 128 644 -11 callsubr
          758 -20 21 callgsubr
          759 -84 210 hintmask 10011000
          13 callsubr
          -54 callsubr
          hintmask 00000000
          482 -666 -60 callsubr
          hintmask 00100100
          -20 callsubr
          hintmask 01000100
          -27 callgsubr
        </CharString>
        <CharString name="Lslash">
          -132 1 30 callsubr
          hstem
          -29 909 vstem
          121 1 rmoveto
          743 hlineto
          16 130 -593 -4 67 533 469 199 -27 98 -428 -185 96 759 -35 callsubr
          -105 -827 -238 -103 28 -91 196 83 rlineto
          endchar
        </CharString>
        <CharString name="M">
          36 callgsubr
          hstemhm
          72 1548 -136 114 hintmask 00000000
          hintmask 01110000
          72 hmoveto
          24 callsubr
          hintmask 10110000
          31 callgsubr
          hintmask 01101000
          -38 callsubr
        </CharString>
        <CharString name="N">
          27 callgsubr
          hstem
          121 1212 vstem
          13 callsubr
          -90 callsubr
        </CharString>
        <CharString name="Nacute">
          27 callgsubr
          165 -21 21 callgsubr
          1212 -528 373 hintmask 00101000
          862 -68 callsubr
          hintmask 11010000
          -684 -1654 rmoveto
          -90 callsubr
        </CharString>
        <CharString name="Ncaron">
          27 callgsubr
          104 386 21 callgsubr
          1212 -794 695 hintmask 00101000
          777 1614 -85 callsubr
          hintmask 11010000
          -418 -1933 rmoveto
          -90 callsubr
        </CharString>
        <CharString name="Ncommaaccent">
          292 -539 -21 581 -58 callsubr
          21 callgsubr
          1212 -736 145 hintmask 10001000
          529 -143 -34 callgsubr
          -502 52 rmoveto
          -90 callsubr
        </CharString>
        <CharString name="Ntilde">
          27 callgsubr
          183 9 callsubr
          121 1212 -835 764 hintmask 00000000
          hintmask 00100100
          565 1733 rmoveto
          hintmask 00110100
          -2 callsubr
          hintmask 00100100
          -82 callsubr
          hintmask 00110100
          -13 callgsubr
          hintmask 11001000
          -377 -1798 rmoveto
          -90 callsubr
        </CharString>
        <CharString name="O">
          -53 callgsubr
          hstem
          112 157 874 157 vstem
          -66 callgsubr
          endchar
        </CharString>
        <CharString name="OE">
          1015 -17 116 -99 120 602 118 573 116 -102 120 -10 callsubr
          hintmask 00000000
          hintmask 10110100
          610 -17 rmoveto
          230 187 125 201 121 hvcurveto
          hintmask 01110100
          -39 -309 rlineto
          -93 callgsubr
          -44 -349 rlineto
          hintmask 01101100
          215 -62 -142 151 -236 hhcurveto
          -407 -309 -403 -531 10 hvcurveto
          hintmask 10110100
          -358 7 171 -272 320 hhcurveto
          24 23 callsubr
          -233 -127 178 366 -5 hvcurveto
          hintmask 01101100
          418 -6 222 366 309 hhcurveto
          240 114 -187 -352 6 hvcurveto
          hintmask 10110100
          -429 7 -216 -360 -311 hhcurveto
          endchar
        </CharString>
        <CharString name="Oacute">
          -53 callgsubr
          128 -21 -10 callsubr
          512 373 -11 157 hintmask 00101000
          838 -68 callsubr
          hintmask 11010100
          -176 -1671 -106 callsubr
          endchar
        </CharString>
        <CharString name="Obreve">
          -53 callgsubr
          90 112 -10 callsubr
          276 104 494 157 hintmask 00101000
          841 -89 callgsubr
          hintmask 11010100
          -236 -1654 -106 callsubr
          endchar
        </CharString>
        <CharString name="Ocircumflex">
          -53 callgsubr
          126 -21 22 -21 -10 callsubr
          233 681 -40 157 hintmask 11001010
          -66 callgsubr
          hintmask 00000000
          -68 1495 -75 callgsubr
        </CharString>
        <CharString name="Odieresis">
          -53 callgsubr
          174 214 -10 callsubr
          273 -11 callgsubr
          -21 157 hintmask 00101100
          1047 1721 -99 callgsubr
          hintmask 11010010
          -22 -1738 -106 callsubr
          endchar
        </CharString>
        <CharString name="Ograve">
          -53 callgsubr
          125 -21 -10 callsubr
          281 367 226 157 hintmask 00101000
          861 1601 -75 callsubr
          hintmask 11010100
          -256 -1618 -106 callsubr
          endchar
        </CharString>
        <CharString name="Ohungarumlaut">
          -53 callgsubr
          22 427 -10 callsubr
          289 828 -243 157 hintmask 11010100
          -66 callgsubr
          hintmask 00101000
          399 1472 -60 callgsubr
        </CharString>
        <CharString name="Omacron">
          -53 callgsubr
          201 114 -10 callsubr
          296 514 64 157 hintmask 00101000
          565 -13 callsubr
          hintmask 11010100
          36 -1879 -106 callsubr
          endchar
        </CharString>
        <CharString name="Omega">
          549 25 callgsubr
          152 35 callsubr
          72 -71 callgsubr
        </CharString>
        <CharString name="Oslash">
          268 -16 116 1328 120 hstem
          112 157 874 157 vstem
          55 -83 rmoveto
          70 -39 160 236 rlineto
          -82 80 107 -48 133 hhcurveto
          414 290 412 521 -9 hvcurveto
          -3 187 -49 169 -94 116 158 232 rcurveline
          -70 38 -144 -213 rlineto
          64 -74 -95 38 -116 hhcurveto
          -404 -307 -403 -531 10 hvcurveto
          3 -172 41 -153 77 -111 rrcurveto
          95 126 rmoveto
          -37 86 -20 113 -2 141 rrcurveto
          418 -6 220 366 306 hhcurveto
          95 75 -31 -61 56 hvcurveto
          -643 -1110 rmoveto
          693 1041 49 -90 26 -127 3 -161 rlinecurve
          -429 8 -215 -360 -307 hhcurveto
          -110 -86 42 84 -61 hvcurveto
          endchar
        </CharString>
        <CharString name="Otilde">
          -53 callgsubr
          146 9 callsubr
          112 157 205 764 -95 157 hintmask 00000000
          hintmask 00100100
          541 1733 rmoveto
          hintmask 00110100
          -2 callsubr
          hintmask 00100100
          -82 callsubr
          hintmask 00110100
          -13 callgsubr
          hintmask 11001010
          131 -1815 -106 callsubr
          endchar
        </CharString>
        <CharString name="P">
          25 callsubr
          hstemhm
          1014 152 hintmask 00000000
          hintmask 11101000
          121 hmoveto
          -29 callsubr
          hintmask 11011000
          26 callsubr
          hintmask 11101000
          -25 callsubr
          hintmask 11011000
          -63 -1 -98 10 -41 8 rrcurveto
          endchar
        </CharString>
        <CharString name="Q">
          268 -359 139 209 110 -94 -21 26 -21 1438 120 -10 callsubr
          306 111 457 157 hintmask 00000000
          hintmask 10101111
          578 -16 rmoveto
          -232 -28 174 -111 188 hhcurveto
          112 139 21 36 54 hvcurveto
          117 vlineto
          -24 -61 -96 -11 -61 hhcurveto
          hintmask 10011111
          -148 -164 30 179 -1 hvcurveto
          370 50 252 391 -8 486 rrcurveto
          346 -6 -160 285 -321 hhcurveto
          -404 -307 -403 -531 10 hvcurveto
          hintmask 10101111
          7 -348 159 -266 300 -15 rrcurveto
          hintmask 11001111
          51 115 rmoveto
          -227 -128 178 366 -5 hvcurveto
          418 -6 220 366 306 hhcurveto
          234 114 -187 -352 6 hvcurveto
          -429 8 -215 -360 -307 hhcurveto
          endchar
        </CharString>
        <CharString name="R">
          146 20 -31 callsubr
          hstemhm
          1006 163 hintmask 00000000
          hintmask 01110100
          120 hmoveto
          -51 callsubr
          hintmask 10110100
          -79 callsubr
          hintmask 01101100
          -32 callsubr
          hintmask 01110100
          -64 callgsubr
          hintmask 01101100
          15 callsubr
          endchar
        </CharString>
        <CharString name="RS">
          endchar
        </CharString>
        <CharString name="Racute">
          146 20 -31 callsubr
          165 -21 hstemhm
          706 373 -73 163 hintmask 00000000
          hintmask 01110001
          120 hmoveto
          -51 callsubr
          hintmask 10110001
          -79 callsubr
          hintmask 01101001
          -32 callsubr
          hintmask 01110001
          -64 callgsubr
          hintmask 01101001
          15 callsubr
          hintmask 00000110
          395 824 -91 callsubr
          endchar
        </CharString>
        <CharString name="Rcaron">
          146 20 -31 callsubr
          104 386 hstemhm
          440 695 -129 163 hintmask 00000110
          678 1614 -85 callsubr
          hintmask 00000000
          -320 -1933 rmoveto
          -51 callsubr
          hintmask 01110001
          -79 callsubr
          hintmask 10110001
          -32 callsubr
          hintmask 01101001
          -64 callgsubr
          hintmask 01110001
          15 callsubr
          endchar
        </CharString>
        <CharString name="Rcommaaccent">
          146 -539 -21 580 -31 callsubr
          hstemhm
          579 145 282 163 hintmask 10000010
          511 -143 -101 callgsubr
          hintmask 00000000
          -485 52 rmoveto
          -51 callsubr
          hintmask 00111001
          -79 callsubr
          hintmask 01011001
          -32 callsubr
          hintmask 00110101
          -64 callgsubr
          hintmask 00111001
          15 callsubr
          endchar
        </CharString>
        <CharString name="S">
          -21 callsubr
          hstem
          187 151 427 157 vstem
          29 73 -74 callgsubr
        </CharString>
        <CharString name="Sacute">
          -21 callsubr
          128 -21 hstemhm
          187 151 291 373 -237 157 hintmask 11010100
          29 73 -105 callsubr
          hintmask 00101000
          615 1407 -91 callsubr
          endchar
        </CharString>
        <CharString name="Scaron">
          -21 callsubr
          67 386 hstemhm
          187 151 26 695 -294 157 hintmask 11010100
          29 73 -105 callsubr
          hintmask 00101000
          531 1418 -4 callgsubr
        </CharString>
        <CharString name="Scedilla">
          -66 -465 126 324 117 -93 -21 1443 116 hstemhm
          187 151 43 131 253 157 hintmask 00000000
          hintmask 11011110
          29 73 rmoveto
          42 -35 144 -48 158 -5 rrcurveto
          6 -39 2 -49 -43 -45 callgsubr
          -67 callgsubr
          hvcurveto
          hintmask 10111110
          72 -11 55 -18 42 vhcurveto
          257 24 186 142 -4 257 -4 208 -165 111 -142 93 -162 107 -116 78 5 182 rrcurveto
          201 6 188 40 123 hhcurveto
          108 123 -28 -57 57 hvcurveto
          48 116 rlineto
          34 -48 -100 51 -198 hhcurveto
          -263 -200 -145 -251 5 hvcurveto
          4 -230 183 -122 148 -96 rrcurveto
          156 -101 87 -89 -139 vvcurveto
          hintmask 11011110
          -193 -174 -79 -184 -145 -153 54 40 -38 vhcurveto
          endchar
        </CharString>
        <CharString name="Scircumflex">
          -21 callsubr
          126 -9 callgsubr
          187 151 12 681 -266 157 hintmask 11001010
          29 73 -105 callsubr
          hintmask 00000000
          338 1398 -75 callgsubr
        </CharString>
        <CharString name="T">
          12 21 11 callsubr
          hstem
          138 1061 vstem
          410 hmoveto
          150 -61 callgsubr
          rlineto
          endchar
        </CharString>
        <CharString name="Tbar">
          12 21 -21 733 100 581 115 hstem
          138 1061 vstem
          410 hmoveto
          -5 callsubr
          92 733 rlineto
          309 hlineto
          13 100 rlineto
          -309 hlineto
          74 586 443 -9 17 120 rlineto
          -1044 hlineto
          -17 -120 451 9 -74 -586 rlineto
          -283 hlineto
          -13 -100 rlineto
          283 hlineto
          endchar
        </CharString>
        <CharString name="Tcaron">
          12 21 11 callsubr
          85 386 hstemhm
          138 1061 -789 695 hintmask 00101000
          648 1614 -85 callsubr
          hintmask 11010000
          -1933 vmoveto
          150 -61 callgsubr
          rlineto
          endchar
        </CharString>
        <CharString name="Thorn">
          85 21 -21 286 118 763 114 249 -20 hstem
          974 152 vstem
          30 callgsubr
          37 297 rlineto
          -4 30 65 -7 107 hhcurveto
          367 254 230 371 -5 hvcurveto
          260 -3 -155 134 -292 hhcurveto
          -82 -90 -10 -5 -73 hvcurveto
          33 264 -35 callsubr
          10 -1111 rmoveto
          92 728 rlineto
          9 55 130 11 51 hhcurveto
          231 93 -114 -179 -2 hvcurveto
          -4 -296 -154 -171 -301 -3 rrcurveto
          -72 -80 8 7 -39 hvcurveto
          endchar
        </CharString>
        <CharString name="U">
          -48 callgsubr
          hstem
          154 154 vstem
          -86 callsubr
          endchar
        </CharString>
        <CharString name="US">
          endchar
        </CharString>
        <CharString name="Uacute">
          -48 callgsubr
          165 -21 -16 callgsubr
          454 373 hintmask 00101000
          819 -68 callsubr
          hintmask 11010000
          -608 -1232 -106 callgsubr
          endchar
        </CharString>
        <CharString name="Ubreve">
          -48 callgsubr
          127 112 -16 callgsubr
          218 104 hintmask 00101000
          822 -89 callgsubr
          hintmask 11010000
          -668 -1215 -106 callgsubr
          endchar
        </CharString>
        <CharString name="Ucircumflex">
          -48 callgsubr
          163 -21 22 -21 -16 callgsubr
          175 681 hintmask 11001000
          -86 callsubr
          hintmask 00000000
          388 1172 -75 callgsubr
        </CharString>
        <CharString name="Udieresis">
          -48 callgsubr
          211 214 -16 callgsubr
          215 -11 callgsubr
          hintmask 00101100
          1028 1721 -99 callgsubr
          hintmask 11010000
          -454 -1299 -106 callgsubr
          endchar
        </CharString>
        <CharString name="Ugrave">
          -48 callgsubr
          162 -21 -16 callgsubr
          223 367 hintmask 00101000
          842 1601 -75 callsubr
          hintmask 11010000
          -688 -1179 -106 callgsubr
          endchar
        </CharString>
        <CharString name="Uhungarumlaut">
          -48 callgsubr
          59 427 -16 callgsubr
          231 828 hintmask 11010000
          -86 callsubr
          hintmask 00101000
          855 1149 -60 callgsubr
        </CharString>
        <CharString name="Umacron">
          -48 callgsubr
          238 114 -16 callgsubr
          238 514 hintmask 00101000
          546 -13 callsubr
          hintmask 11010000
          -396 -1440 -106 callgsubr
          endchar
        </CharString>
        <CharString name="Uogonek">
          250 -435 113 305 123 1424 -20 -16 callgsubr
          -23 327 hintmask 00000000
          hintmask 11110000
          154 422 rmoveto
          -276 5 151 -163 292 hhcurveto
          38 36 3 4 35 hvcurveto
          hintmask 11101000
          -92 -55 -156 -101 -120 vvcurveto
          -59 51 -90 137 -24 callsubr
          -51 -36 28 52 64 119 110 95 83 hvcurveto
          207 69 123 185 46 358 114 903 rcurveline
          -147 hlineto
          -112 -890 rlineto
          -389 -50 -139 -145 -245 hhcurveto
          hintmask 11110000
          -210 -101 121 201 -4 hvcurveto
          -1 57 4 62 9 72 115 911 rcurveline
          hintmask 11101000
          -150 hlineto
          hintmask 11110000
          -119 -937 -7 -59 -6 -60 1 -52 rlinecurve
          endchar
        </CharString>
        <CharString name="Uring">
          250 -17 123 1377 82 -35 -20 406 84 -16 callgsubr
          210 35 callgsubr
          hintmask 10101000
          -86 callsubr
          hintmask 01010110
          643 1061 -47 callsubr
        </CharString>
        <CharString name="Utilde">
          -48 callgsubr
          183 9 callsubr
          154 154 147 764 hintmask 00000000
          hintmask 00100100
          522 1733 rmoveto
          hintmask 00110100
          -2 callsubr
          hintmask 00100100
          -82 callsubr
          hintmask 00110100
          -13 callgsubr
          hintmask 11001000
          -301 -1376 -106 callgsubr
          endchar
        </CharString>
        <CharString name="V">
          59 16 -21 1535 -20 hstem
          154 1110 vstem
          408 -5 rmoveto
          161 1 695 1534 rlineto
          -160 hlineto
          -478 -1096 -115 -282 -39 282 -168 1096 -35 callsubr
          endchar
        </CharString>
        <CharString name="W">
          660 -10 176 -155 34 callsubr
          10 callgsubr
          hintmask 00000000
          hintmask 01110000
          380 -10 rmoveto
          155 hlineto
          340 860 84 236 18 -236 89 -860 rlineto
          154 hlineto
          647 1540 rlineto
          -152 hlineto
          -443 -1105 rlineto
          hintmask 10110000
          -99 -259 -20 268 -109 1096 rlineto
          -144 hlineto
          23 -226 -352 -879 -86 -259 -40 268 -146 1096 -35 callsubr
          endchar
        </CharString>
        <CharString name="Wacute">
          660 11 34 callsubr
          165 -21 10 callgsubr
          -873 373 hintmask 00101000
          1051 -68 callsubr
          hintmask 00000000
          -614 -1664 -79 callgsubr
        </CharString>
        <CharString name="Wcircumflex">
          660 -10 176 -155 34 callsubr
          163 -21 22 -21 10 callgsubr
          -1151 681 hintmask 00000000
          hintmask 01100100
          380 -10 rmoveto
          155 hlineto
          340 860 84 236 18 -236 89 -860 rlineto
          154 hlineto
          647 1540 rlineto
          -152 hlineto
          -443 -1105 rlineto
          hintmask 10100100
          -99 -259 -20 268 -109 1096 rlineto
          -144 hlineto
          23 -226 -352 -879 -86 -259 -40 268 -146 1096 -35 callsubr
          hintmask 00000000
          626 64 -65 callsubr
        </CharString>
        <CharString name="Wdieresis">
          660 11 34 callsubr
          211 214 10 callgsubr
          -1111 -11 callgsubr
          hintmask 00101100
          1261 1721 -99 callgsubr
          hintmask 00000000
          -461 -1731 -79 callgsubr
        </CharString>
        <CharString name="Wgrave">
          660 11 34 callsubr
          162 -21 10 callgsubr
          -1103 367 hintmask 00101000
          1075 1601 -75 callsubr
          hintmask 00000000
          -695 -1611 -79 callgsubr
        </CharString>
        <CharString name="X">
          37 -14 callsubr
          -35 1247 vstem
          -35 hmoveto
          183 hlineto
          430 656 274 -656 rlineto
          172 hlineto
          -348 758 536 772 rlineto
          -170 hlineto
          -424 -635 -255 635 rlineto
          -166 hlineto
          323 -742 rlineto
          endchar
        </CharString>
        <CharString name="Y">
          -27 -14 callsubr
          105 1108 vstem
          -80 callgsubr
          endchar
        </CharString>
        <CharString name="Yacute">
          16 callgsubr
          165 -21 hstemhm
          105 1108 -584 373 hintmask 11010000
          -80 callgsubr
          hintmask 00101000
          208 1018 -91 callsubr
          endchar
        </CharString>
        <CharString name="Ycircumflex">
          16 callgsubr
          163 -9 callgsubr
          105 1108 -863 681 hintmask 11001000
          -80 callgsubr
          hintmask 00000000
          -69 1009 -75 callgsubr
        </CharString>
        <CharString name="Ydieresis">
          16 callgsubr
          211 13 callgsubr
          105 1108 -822 -11 callgsubr
          hintmask 11010000
          -80 callgsubr
          hintmask 00101100
          418 1136 -72 callsubr
        </CharString>
        <CharString name="Ygrave">
          16 callgsubr
          162 -21 hstemhm
          105 1108 -815 367 hintmask 11010000
          -80 callgsubr
          hintmask 00101000
          231 1016 -34 callsubr
        </CharString>
        <CharString name="Z">
          -17 callsubr
          hstemhm
          15 1167 hintmask 00000000
          hintmask 11010000
          36 hmoveto
          -35 callgsubr
          hintmask 10110000
          843 1195 rlineto
          hintmask 11010000
          -50 callgsubr
          endchar
        </CharString>
        <CharString name="Zacute">
          -17 callsubr
          145 -21 hstemhm
          15 1167 -486 373 hintmask 00000000
          hintmask 11001000
          36 hmoveto
          -35 callgsubr
          hintmask 10101000
          843 1195 rlineto
          hintmask 11001000
          -50 callgsubr
          hintmask 00010100
          738 1533 -91 callsubr
          endchar
        </CharString>
        <CharString name="Zcaron">
          -17 callsubr
          84 386 hstemhm
          15 1167 -752 695 hintmask 00010100
          668 1614 -85 callsubr
          hintmask 00000000
          -394 -1933 -45 callsubr
        </CharString>
        <CharString name="Zdotaccent">
          -17 callsubr
          177 23 callgsubr
          15 1167 -515 201 hintmask 00010100
          751 1707 -97 callsubr
          hintmask 00000000
          -715 -1707 -45 callsubr
        </CharString>
        <CharString name="a">
          -53 callsubr
          5 callgsubr
          hintmask 00000000
          hintmask 10110000
          399 -16 rmoveto
          165 135 116 105 73 hvcurveto
          -3 vlineto
          hintmask 01110000
          -19 -202 rlineto
          131 hlineto
          157 1156 -113 -37 rlineto
          20 -63 -84 17 -67 hhcurveto
          -439 -194 -428 -313 hvcurveto
          hintmask 10110000
          -101 callsubr
          endchar
        </CharString>
        <CharString name="aacute">
          -53 callsubr
          92 455 5 callgsubr
          382 423 -100 callgsubr
          256 1148 1 callgsubr
        </CharString>
        <CharString name="abreve">
          -53 callsubr
          148 112 5 callgsubr
          181 104 -100 callgsubr
          288 1204 -107 callsubr
          endchar
        </CharString>
        <CharString name="acircumflex">
          -53 callsubr
          58 435 5 callgsubr
          122 683 -100 callgsubr
          -8 1114 -43 callgsubr
        </CharString>
        <CharString name="acute">
          -551 20 callsubr
          455 hstem
          58 423 vstem
          121 20 callsubr
          1 callgsubr
        </CharString>
        <CharString name="acute.cap">
          -584 1675 -21 hstem
          82 373 vstem
          139 -68 callsubr
          endchar
        </CharString>
        <CharString name="adieresis">
          -53 callsubr
          5 callgsubr
          hintmask 00000000
          hintmask 10110000
          399 -16 rmoveto
          165 135 116 105 73 hvcurveto
          -3 vlineto
          hintmask 01110000
          -19 -202 rlineto
          131 hlineto
          157 1156 -113 -37 rlineto
          20 -63 -84 17 -67 hhcurveto
          -439 -194 -428 -313 hvcurveto
          hintmask 10110000
          -101 callsubr
          hintmask 00000000
          505 1309 -46 callgsubr
        </CharString>
        <CharString name="ae">
          514 -16 -63 callgsubr
          -110 110 5 callgsubr
          448 157 563 149 hintmask 00000000
          hintmask 11011110
          358 -16 -84 callgsubr
          hintmask 11101110
          22 callgsubr
          hintmask 11011110
          -210 -333 -126 -225 -7 vhcurveto
          endchar
        </CharString>
        <CharString name="aeacute">
          514 -16 -63 callgsubr
          -110 110 93 455 5 callgsubr
          448 157 -21 423 161 149 hintmask 0000100100000000
          882 20 callsubr
          -90 callgsubr
          hintmask 0000000000000000
          -461 -1320 -84 callgsubr
          hintmask 1101011010000000
          22 callgsubr
          hintmask 1110011010000000
          -210 -333 -126 -225 -7 vhcurveto
          endchar
        </CharString>
        <CharString name="afii61352">
          1376 0 121 449 110 743 109 hstem
          1560 143 566 143 vstem
          1564 1058 rmoveto
          -297 -30 140 -191 259 hhcurveto
          195 246 139 339 34 hvcurveto
          297 30 -140 187 -259 hhcurveto
          -196 -246 -135 -339 -33 hvcurveto
          -1405 -1058 rmoveto
          142 hlineto
          132 1073 28 284 70 -235 496 -1122 rlineto
          146 hlineto
          194 1530 rlineto
          -143 hlineto
          -131 -1061 -25 -267 -86 235 -475 1093 rlineto
          -157 hlineto
          1357 -465 rmoveto
          25 258 137 99 155 1 176 2 89 -154 -24 -231 -25 -253 -130 -106 -162 -1 -176 -2 -89 155 24 232 rrcurveto
          -203 -1065 rmoveto
          760 hlineto
          11 121 rlineto
          -760 hlineto
          endchar
        </CharString>
        <CharString name="agrave">
          -53 callsubr
          92 452 5 callgsubr
          120 409 -100 callgsubr
          275 1148 -76 callgsubr
        </CharString>
        <CharString name="amacron">
          -53 callsubr
          277 114 5 callgsubr
          207 514 -100 callgsubr
          18 1333 -73 callgsubr
          endchar
        </CharString>
        <CharString name="ampersand">
          424 -20 103 -100 108 603 112 639 102 hstemhm
          105 155 83 137 470 142 38 138 hintmask 00000000
          hintmask 01111111
          105 365 rmoveto
          -278 249 -104 268 137 121 28 53 99 vhcurveto
          hintmask 10111111
          -58 74 107 -26 82 hhcurveto
          36 56 1 13 54 hvcurveto
          15 93 -14 -4 -25 -1 -15 1 rlinecurve
          -103 -2 -80 18 -72 46 rrcurveto
          111 103 63 149 189 vvcurveto
          45 -6 35 -8 28 vhcurveto
          181 hlineto
          8 111 rlineto
          -30 -250 1 -34 hhcurveto
          -72 -49 -14 -15 -15 hvcurveto
          -9 -105 22 12 50 9 50 1 rlinecurve
          13 -35 11 -46 -60 vvcurveto
          -141 -49 -111 -82 -78 vhcurveto
          -148 137 -134 184 -112 195 rrcurveto
          229 123 258 120 263 vvcurveto
          136 -110 166 -228 -239 -172 -169 -241 -113 44 -146 50 -107 vhcurveto
          hintmask 01111111
          -177 -99 -155 -115 -192 vvcurveto
          449 468 rmoveto
          -34 69 -40 114 125 vvcurveto
          168 105 136 164 140 61 -98 -118 -187 -194 -103 -202 -106 vhcurveto
          -294 -464 rmoveto
          135 100 90 130 80 vhcurveto
          105 -181 102 -163 192 -184 rrcurveto
          -36 -74 -86 -19 -94 hhcurveto
          -204 -171 82 196 hvcurveto
          endchar
        </CharString>
        <CharString name="aogonek">
          42 -435 113 306 116 -79 -21 1046 110 hstemhm
          93 154 256 148 hintmask 00000000
          hintmask 11011100
          411 -16 rmoveto
          165 135 116 105 73 hvcurveto
          -3 vlineto
          -19 -200 rlineto
          -89 -48 -173 -100 -140 vvcurveto
          -59 50 32 callsubr
          78 rlineto
          -38 -49 -55 -21 -54 hhcurveto
          -51 -37 28 52 hvcurveto
          hintmask 10111100
          94 154 96 79 52 vhcurveto
          12 hlineto
          157 1156 -113 -37 rlineto
          20 -63 -84 17 -67 hhcurveto
          -439 -194 -428 -313 hvcurveto
          hintmask 11011100
          -101 callsubr
          endchar
        </CharString>
        <CharString name="approxequal">
          -47 306 127 47 126 146 127 47 126 hstemhm
          67 912 -859 912 hintmask 11001000
          122 352 -68 callgsubr
          hintmask 00110100
          108 389 -68 callgsubr
          endchar
        </CharString>
        <CharString name="aring">
          -53 callsubr
          101 83 356 84 5 callgsubr
          221 35 callgsubr
          hintmask 00000000
          hintmask 10100100
          399 -16 rmoveto
          165 135 116 105 73 hvcurveto
          -3 vlineto
          hintmask 01100100
          -19 -202 rlineto
          131 hlineto
          157 1156 -113 -37 rlineto
          20 -63 -84 17 -67 hhcurveto
          -439 -194 -428 -313 hvcurveto
          hintmask 10100100
          -101 callsubr
          hintmask 00011011
          311 1157 -71 callsubr
          endchar
        </CharString>
        <CharString name="asciicircum">
          248 1385 145 0 -20 hstemhm
          186 938 hintmask 00000000
          hintmask 01100000
          186 510 rmoveto
          135 hlineto
          hintmask 10100000
          446 875 226 -875 rlineto
          131 hlineto
          -267 1020 rlineto
          -153 hlineto
          endchar
        </CharString>
        <CharString name="asciitilde">
          27 741 127 47 126 hstem
          140 912 vstem
          195 787 -68 callgsubr
          endchar
        </CharString>
        <CharString name="asterisk">
          256 1146 -20 21 -20 hstemhm
          240 983 hintmask 00000000
          hintmask 01100000
          299 831 rmoveto
          269 170 128 95 -36 -146 -52 -302 151 -1 7 303 -9 146 105 -97 227 -172 88 126 rlineto
          hintmask 10100000
          -254 135 -129 58 145 58 284 135 -59 128 -267 -172 -129 -95 37 150 51 303 rlineto
          -148 hlineto
          -7 -303 6 -150 -109 95 -233 176 -87 -127 rlineto
          hintmask 01100000
          260 -139 134 -58 -146 -57 -286 -130 rlineto
          endchar
        </CharString>
        <CharString name="at">
          858 -440 107 338 117 -114 133 854 97 352 101 21 callgsubr
          117 305 138 498 135 437 118 hintmask 0000000000000000
          hintmask 1101111110000000
          121 373 rmoveto
          -517 328 -296 449 174 162 48 68 90 vhcurveto
          -26 76 rlineto
          -35 -64 -181 -50 -144 hhcurveto
          -364 -307 216 508 554 369 499 554 332 258 -150 -429 hvcurveto
          hintmask 1011111110000000
          -372 -218 -352 -180 -31 -8 34 30 41 6 97 13 103 vhcurveto
          26 203 47 259 41 154 -128 -24 rcurveline
          36 -56 -119 18 -58 hhcurveto
          -370 -167 -367 -291 -6 hvcurveto
          hintmask 1101111110000000
          -297 -6 152 -132 135 hhcurveto
          158 138 237 219 91 hvcurveto
          -17 -89 -15 -104 -55 vvcurveto
          hintmask 1011111110000000
          -105 5 -100 94 260 331 332 549 400 -261 256 -419 vhcurveto
          hintmask 1101111110000000
          -590 -478 -448 -724 hvcurveto
          560 71 rmoveto
          247 139 303 260 1 vhcurveto
          59 105 -24 -45 38 hvcurveto
          -68 -304 -219 -501 -148 1 rrcurveto
          -104 1 -62 120 201 vvcurveto
          endchar
        </CharString>
        <CharString name="atilde">
          -53 callsubr
          222 0 callgsubr
          81 154 102 764 hintmask 00000000
          hintmask 10100100
          399 -16 rmoveto
          165 135 116 105 73 hvcurveto
          -3 vlineto
          hintmask 01100100
          -19 -202 rlineto
          131 hlineto
          157 1156 -113 -37 rlineto
          20 -63 -84 17 -67 hhcurveto
          -439 -194 -428 -313 hvcurveto
          hintmask 10100100
          -101 callsubr
          hintmask 00000000
          -19 1315 rmoveto
          hintmask 00010010
          -1 callsubr
          hintmask 00011010
          -81 callgsubr
          hintmask 00010010
          -28 callsubr
        </CharString>
        <CharString name="b">
          49 -16 10 callsubr
          hstem
          906 154 vstem
          95 2 rmoveto
          84 25 rlineto
          -22 63 100 -21 77 -81 callsubr
          endchar
        </CharString>
        <CharString name="backslash">
          -256 -362 1959 hstem
          46 709 vstem
          755 -362 rmoveto
          -577 1959 rlineto
          -132 hlineto
          576 -1959 rlineto
          endchar
        </CharString>
        <CharString name="bar">
          22 callsubr
          -186 rmoveto
          131 1966 -131 hlineto
          endchar
        </CharString>
        <CharString name="braceleft">
          -86 -159 104 1662 103 -15 -21 hstemhm
          305 388 -298 141 hintmask 00000000
          hintmask 10110000
          305 -48 rmoveto
          -87 -2 35 -24 96 hhcurveto
          110 73 15 21 91 hvcurveto
          0 7 57 2 11 vhcurveto
          hintmask 10101000
          -275 hlineto
          94 631 7 44 -21 37 -40 31 rlinecurve
          -34 28 -57 31 -64 29 22 5 106 46 34 17 rrcurveto
          hintmask 11010000
          65 32 35 39 8 54 96 638 rcurveline
          276 hlineto
          hintmask 10110000
          14 10 53 0 vhcurveto
          hintmask 11001000
          0 -175 36 -89 -119 -37 -41 -150 -23 vhcurveto
          -82 -551 -5 -29 -23 -27 -51 -22 rlinecurve
          -52 -24 -78 -23 -69 -18 -14 -97 rcurveline
          62 -17 64 -26 47 -28 36 -21 26 -26 -2 -31 rrcurveto
          hintmask 10110000
          0 -90 -606 -21 vvcurveto
          endchar
        </CharString>
        <CharString name="braceright">
          -86 -164 103 -88 21 1729 104 hstemhm
          379 388 -231 141 hintmask 00000000
          hintmask 01110000
          767 1594 rmoveto
          87 2 -35 24 -96 hhcurveto
          -110 -73 -15 -21 -91 hvcurveto
          0 -7 -57 -2 -11 vhcurveto
          hintmask 01101000
          275 hlineto
          -94 -631 -7 -44 21 -37 40 -31 rlinecurve
          34 -28 57 -31 64 -29 -22 -5 -106 -46 -34 -17 rrcurveto
          hintmask 10110000
          -65 -32 -35 -39 -8 -54 -96 -638 rcurveline
          -276 hlineto
          hintmask 01110000
          -14 -10 -53 0 vhcurveto
          hintmask 10101000
          0 175 -36 89 119 37 41 150 23 vhcurveto
          82 551 5 29 23 27 51 22 rlinecurve
          52 24 78 23 69 18 14 97 rcurveline
          -62 17 -64 26 -47 28 -36 21 -26 26 2 31 rrcurveto
          hintmask 01110000
          0 90 606 21 vvcurveto
          endchar
        </CharString>
        <CharString name="bracketleft">
          -256 -172 104 1675 103 -16 -21 hstemhm
          194 367 hintmask 00000000
          hintmask 10110000
          197 21 rmoveto
          -2 -31 -1 -27 -27 vvcurveto
          -83 35 -25 95 96 115 17 19 85 vhcurveto
          7 66 rlineto
          -64 -167 2 -65 hhcurveto
          hintmask 11010000
          230 1675 rlineto
          292 hlineto
          hintmask 10110000
          9 66 rlineto
          hintmask 11010000
          1 -22 -161 36 -96 hhcurveto
          -121 -36 -45 -146 -19 hvcurveto
          hintmask 10110000
          -44 -337 -150 -889 -16 -272 rrcurveto
          endchar
        </CharString>
        <CharString name="bracketright">
          -256 -154 103 -87 21 1741 104 hstemhm
          356 367 hintmask 00000000
          hintmask 01110000
          720 1535 rmoveto
          2 31 1 27 27 vvcurveto
          83 -35 25 -95 -96 -115 -17 -19 -85 vhcurveto
          -7 -66 rlineto
          64 167 -2 65 hhcurveto
          hintmask 10110000
          -230 -1675 rlineto
          -292 hlineto
          hintmask 01110000
          -9 -66 rlineto
          hintmask 10110000
          -1 22 161 -36 96 hhcurveto
          121 36 45 146 19 hvcurveto
          hintmask 01110000
          44 337 150 889 16 272 rrcurveto
          endchar
        </CharString>
        <CharString name="breve">
          -393 1305 112 hstem
          52 104 vstem
          348 1305 -107 callsubr
          endchar
        </CharString>
        <CharString name="breve.cap">
          -395 1637 112 hstem
          52 104 vstem
          348 -89 callgsubr
          endchar
        </CharString>
        <CharString name="brokenbar">
          22 callsubr
          886 rmoveto
          131 894 -131 hlineto
          -1966 vmoveto
          131 894 -131 hlineto
          endchar
        </CharString>
        <CharString name="bullet">
          -252 557 334 hstem
          282 331 vstem
          419 557 rmoveto
          118 76 108 93 77 -58 56 -78 -110 -85 -105 -93 -75 59 -61 78 hvcurveto
          endchar
        </CharString>
        <CharString name="c">
          -23 callsubr
          hstem
          89 152 vstem
          89 433 -95 callsubr
          endchar
        </CharString>
        <CharString name="cacute">
          -23 callsubr
          93 455 hstemhm
          89 152 324 423 hintmask 00101000
          628 20 callsubr
          -90 callgsubr
          hintmask 11010000
          -476 -871 -95 callsubr
          endchar
        </CharString>
        <CharString name="caron">
          -315 1255 395 hstem
          50 712 vstem
          292 -78 callsubr
          endchar
        </CharString>
        <CharString name="caron.cap">
          -317 1614 386 hstem
          50 695 vstem
          288 1614 -4 callgsubr
        </CharString>
        <CharString name="caronvertical">
          -795 1038 642 hstem
          268 139 vstem
          279 1038 -85 callgsubr
        </CharString>
        <CharString name="ccaron">
          -23 callsubr
          99 395 hstemhm
          89 152 102 712 hintmask 00101000
          585 -78 callsubr
          hintmask 11010000
          -254 -1150 -95 callsubr
          endchar
        </CharString>
        <CharString name="ccedilla">
          -199 -465 126 327 110 -90 -21 22 -21 1056 112 hstemhm
          89 152 177 131 hintmask 00000000
          hintmask 10011110
          160 -321 rmoveto
          -67 callgsubr
          72 -11 55 -18 42 hvcurveto
          149 21 105 95 45 59 -50 82 rcurveline
          hintmask 11001110
          -86 -87 -85 -61 -114 hhcurveto
          -159 -83 109 241 321 192 275 217 72 72 -17 -40 50 hvcurveto
          39 128 rlineto
          29 -57 -90 12 -72 hhcurveto
          -380 -195 -408 -315 hvcurveto
          hintmask 10101110
          -258 111 -165 209 -23 vhcurveto
          6 -39 3 -50 -44 vvcurveto
          -143 -70 -50 -100 vhcurveto
          hintmask 10011110
          -43 -28 9 9 -17 hvcurveto
          endchar
        </CharString>
        <CharString name="ccircumflex">
          -23 callsubr
          59 435 hstemhm
          89 152 64 683 hintmask 00101000
          364 1215 -92 callgsubr
          hintmask 11010000
          -216 -841 -95 callsubr
          endchar
        </CharString>
        <CharString name="cdotaccent">
          -23 callsubr
          270 13 callgsubr
          89 152 340 203 hintmask 11010000
          89 433 -95 callsubr
          hintmask 00101000
          578 993 rmoveto
          -104 callgsubr
          endchar
        </CharString>
        <CharString name="cedilla">
          -631 -465 126 hstem
          281 131 vstem
          265 22 rmoveto
          12 -39 4 -71 -58 -45 callgsubr
          -67 callgsubr
          93 -19 66 -28 44 hvcurveto
          -41 4 rlineto
          endchar
        </CharString>
        <CharString name="cent">
          -53 -16 114 -82 -21 1049 111 hstemhm
          140 152 hintmask 00000000
          hintmask 01110000
          414 -5 rmoveto
          -39 -210 rlineto
          115 hlineto
          hintmask 10110000
          37 199 172 6 121 109 50 64 rlinecurve
          -50 82 rlineto
          -86 -87 -85 -61 -114 hhcurveto
          -159 -83 109 241 321 192 275 217 72 72 -17 -40 50 hvcurveto
          39 128 -50 25 -74 12 -66 3 rlinecurve
          50 203 rlineto
          -116 hlineto
          -50 -210 rlineto
          -323 -56 -165 -369 -290 vvcurveto
          hintmask 01110000
          -238 94 -160 180 -40 vhcurveto
          endchar
        </CharString>
        <CharString name="circumflex">
          -315 1215 435 hstem
          57 683 vstem
          116 1215 -43 callgsubr
        </CharString>
        <CharString name="circumflex.cap">
          -315 1673 -9 callgsubr
          51 681 hintmask 00000000
          hintmask 01100000
          110 1594 rmoveto
          330 270 rlineto
          hintmask 10100000
          -80 callsubr
          hintmask 01100000
          -340 -347 rlineto
          endchar
        </CharString>
        <CharString name="colon">
          -607 -17 -11 callsubr
          832 -11 callsubr
          hstemhm
          85 210 -113 210 hintmask 00000000
          hintmask 01001000
          85 75 -60 callsubr
          hintmask 10001000
          -20 callsubr
          hintmask 01001000
          -73 -47 -58 -70 -1 hvcurveto
          hintmask 00000000
          97 832 -60 callsubr
          hintmask 00010100
          -20 callsubr
          hintmask 00100100
          -27 callgsubr
        </CharString>
        <CharString name="comma">
          -607 -480 -21 hstem
          184 159 vstem
          -41 callgsubr
          endchar
        </CharString>
        <CharString name="commaaccent">
          -743 -539 -21 hstem
          116 145 vstem
          48 -143 -101 callgsubr
          endchar
        </CharString>
        <CharString name="copyright">
          951 90 100 277 121 704 121 273 97 hstem
          196 110 301 148 1012 -58 callgsubr
          301 -6 rmoveto
          -246 158 -219 267 130 118 41 52 63 vhcurveto
          -36 95 rlineto
          -35 -58 -94 -32 -103 hhcurveto
          -169 -128 122 233 193 113 156 203 95 74 -24 -31 50 hvcurveto
          27 125 rlineto
          19 -39 -78 32 -115 hhcurveto
          -309 -170 -211 -270 1 hvcurveto
          endchar
        </CharString>
        <CharString name="currency">
          404 252 102 672 102 hstem
          326 114 652 114 vstem
          230 229 rmoveto
          87 -86 191 191 rlineto
          -52 73 89 -30 96 hhcurveto
          99 92 33 55 74 hvcurveto
          192 -191 87 86 -192 192 rlineto
          55 73 33 91 99 vvcurveto
          96 -31 88 -53 72 vhcurveto
          190 190 -87 87 -187 -188 rlineto
          58 -75 -95 35 -102 hhcurveto
          -98 -90 -32 -53 -73 hvcurveto
          -191 193 -87 -87 191 -191 rlineto
          -58 -74 -34 -93 -101 vvcurveto
          -103 35 -93 58 -75 vhcurveto
          21 271 rmoveto
          185 146 151 180 181 145 -151 -185 -185 -145 -151 -181 -180 -146 151 185 vhcurveto
          endchar
        </CharString>
        <CharString name="d">
          7 callgsubr
          12 callsubr
          hintmask 00000000
          hintmask 10110000
          -31 callgsubr
          hintmask 01110000
          -55 callgsubr
          hintmask 10110000
          -78 callgsubr
          endchar
        </CharString>
        <CharString name="dagger">
          -295 1146 114 hstem
          138 735 vstem
          306 151 rmoveto
          90 hlineto
          158 857 12 138 rlineto
          291 hlineto
          16 114 rlineto
          -307 hlineto
          56 209 29 177 rlineto
          -144 hlineto
          -26 -177 -11 -209 rlineto
          -316 hlineto
          -16 -114 rlineto
          299 hlineto
          -27 -138 rlineto
          endchar
        </CharString>
        <CharString name="daggerdbl">
          -295 649 114 383 114 hstemhm
          131 738 -465 165 hintmask 00000000
          hintmask 11100000
          292 -51 rmoveto
          88 hlineto
          108 561 13 139 240 1 16 114 rlineto
          hintmask 11010000
          -248 hlineto
          54 217 12 165 rlineto
          277 hlineto
          17 114 rlineto
          -294 hlineto
          55 209 28 177 rlineto
          -144 hlineto
          -26 -177 -9 -209 rlineto
          -287 hlineto
          -16 -114 rlineto
          271 hlineto
          -39 -165 -8 -217 rlineto
          -251 hlineto
          -18 -114 242 -1 -29 -139 rlineto
          endchar
        </CharString>
        <CharString name="dcaron">
          319 -16 116 -79 -21 1016 642 -611 109 12 callsubr
          1064 139 hintmask 00000000
          hintmask 10011000
          -31 callgsubr
          hintmask 01011000
          -55 callgsubr
          hintmask 10011000
          -78 callgsubr
          hintmask 00100100
          885 916 -85 callgsubr
        </CharString>
        <CharString name="dcroat">
          7 callgsubr
          136 100 12 callsubr
          hintmask 00000000
          hintmask 10111000
          -31 callgsubr
          hintmask 01111000
          -20 -208 rlineto
          132 hlineto
          177 1292 rlineto
          144 hlineto
          13 100 rlineto
          -144 hlineto
          34 245 rlineto
          -148 hlineto
          -34 -245 rlineto
          -290 hlineto
          -13 -100 rlineto
          289 hlineto
          -22 -161 rlineto
          14 -56 -66 11 -55 hhcurveto
          -438 -202 -426 -314 hvcurveto
          hintmask 10111000
          -78 callgsubr
          endchar
        </CharString>
        <CharString name="degree">
          -211 955 93 459 93 hstem
          147 108 438 108 vstem
          463 955 rmoveto
          190 145 139 185 3 hvcurveto
          177 3 -137 144 -185 hhcurveto
          -190 -142 -138 -183 -3 hvcurveto
          -177 -3 137 -147 182 hhcurveto
          5 93 rmoveto
          -122 -94 103 128 3 hvcurveto
          130 2 92 98 129 hhcurveto
          123 95 -98 -130 -3 hvcurveto
          -132 -2 -92 -99 -131 hhcurveto
          endchar
        </CharString>
        <CharString name="dieresis">
          -301 1410 23 callgsubr
          95 11 callgsubr
          hintmask 00000000
          hintmask 11100000
          602 1410 -46 callgsubr
        </CharString>
        <CharString name="dieresis.cap">
          -303 1721 214 hstem
          87 -11 callgsubr
          vstem
          592 1721 -72 callsubr
        </CharString>
        <CharString name="divide">
          228 277 220 217 122 214 220 hstemhm
          625 224 hintmask 00000000
          hintmask 11110000
          716 1050 rmoveto
          59 66 45 74 8 hvcurveto
          58 8 -27 43 -71 hhcurveto
          -58 -68 -47 -71 -8 hvcurveto
          -67 -8 45 -35 54 hhcurveto
          -473 -336 rmoveto
          869 hlineto
          14 122 rlineto
          -869 hlineto
          273 -457 rmoveto
          -66 -8 44 -36 55 hhcurveto
          60 63 45 74 9 hvcurveto
          58 8 -26 43 -71 hhcurveto
          -59 -67 -48 -70 -8 hvcurveto
          endchar
        </CharString>
        <CharString name="dollar">
          94 -18 115 1333 111 -111 299 -188 -20 hstemhm
          286 151 427 156 hintmask 00000000
          hintmask 10011100
          128 68 rmoveto
          39 -33 128 -43 145 -10 -34 -212 rcurveline
          137 hlineto
          35 213 259 23 187 147 -4 258 rlinecurve
          -4 208 -164 111 -142 93 -162 107 -117 78 6 181 rrcurveto
          hintmask 11001100
          200 5 189 41 123 hhcurveto
          108 123 -28 -56 57 hvcurveto
          48 115 -40 28 -77 40 -141 12 rlinecurve
          hintmask 10101100
          30 188 rlineto
          -137 hlineto
          -30 -186 -239 -17 -175 -140 5 -236 rlinecurve
          4 -230 183 -121 148 -96 rrcurveto
          156 -101 87 -89 -139 vvcurveto
          -193 -174 -84 -184 -145 -154 54 40 -37 vhcurveto
          endchar
        </CharString>
        <CharString name="dotaccent">
          -723 1426 214 hstem
          61 203 vstem
          147 1426 rmoveto
          -104 callgsubr
          endchar
        </CharString>
        <CharString name="dotaccent.cap">
          -721 1707 213 hstem
          59 201 vstem
          143 1707 -15 callsubr
        </CharString>
        <CharString name="dotlessi">
          -49 callgsubr
          hstem
          133 303 vstem
          133 hmoveto
          -7 callgsubr
        </CharString>
        <CharString name="dotlessj">
          -534 33 callsubr
          hstem
          -244 688 vstem
          149 -77 callsubr
          endchar
        </CharString>
        <CharString name="e">
          -79 -16 -63 callgsubr
          hstem
          90 157 563 149 vstem
          90 441 -96 callsubr
        </CharString>
        <CharString name="eacute">
          -79 -16 -63 callgsubr
          93 455 hstemhm
          90 157 302 423 -162 149 hintmask 00010100
          612 20 callsubr
          -90 callgsubr
          hintmask 11101010
          -459 -863 -96 callsubr
        </CharString>
        <CharString name="ebreve">
          -79 -16 -63 callgsubr
          149 112 hstemhm
          90 157 102 104 357 149 hintmask 11101010
          90 441 -107 callgsubr
          hintmask 00010100
          393 755 -107 callsubr
          endchar
        </CharString>
        <CharString name="ecaron">
          -79 -16 -63 callgsubr
          99 395 hstemhm
          90 157 81 712 -230 149 hintmask 00010100
          570 -78 callsubr
          hintmask 11101010
          -238 -1142 -96 callsubr
        </CharString>
        <CharString name="ecircumflex">
          -79 -16 -63 callgsubr
          59 435 hstemhm
          90 157 43 683 -163 149 hintmask 00010100
          349 1215 -92 callgsubr
          hintmask 11101010
          -200 -833 -96 callsubr
        </CharString>
        <CharString name="edieresis">
          -79 -16 -63 callgsubr
          254 23 callgsubr
          90 157 108 11 callgsubr
          -169 149 hintmask 00000000
          hintmask 00010110
          862 1410 -99 callsubr
          hintmask 11101001
          -351 -969 -96 callsubr
        </CharString>
        <CharString name="edotaccent">
          -79 -16 -63 callgsubr
          270 13 callgsubr
          90 157 319 203 41 149 hintmask 11101010
          90 441 -107 callgsubr
          hintmask 00010100
          400 876 rmoveto
          -104 callgsubr
          endchar
        </CharString>
        <CharString name="egrave">
          -79 -16 -63 callgsubr
          93 452 hstemhm
          90 157 40 409 114 149 hintmask 11101010
          90 441 -107 callgsubr
          hintmask 00010100
          379 699 -76 callgsubr
        </CharString>
        <CharString name="eight">
          139 -17 104 1383 99 hstemhm
          120 161 15 153 450 163 -80 150 hintmask 00000000
          hintmask 11100100
          120 348 rmoveto
          -247 222 -118 204 vhcurveto
          hintmask 11101000
          281 235 156 262 171 -154 133 -146 100 hvcurveto
          hintmask 11110100
          201 72 169 168 198 vvcurveto
          202 -163 124 -211 -259 -203 -140 -258 -160 115 -109 106 -82 vhcurveto
          hintmask 11100100
          -190 -82 -207 -168 -222 vvcurveto
          563 516 rmoveto
          hintmask 11110100
          -124 88 -110 101 145 vvcurveto
          161 131 111 161 125 116 -78 -160 vhcurveto
          hintmask 11100100
          -179 -163 -128 -136 -61 vhcurveto
          -402 -497 rmoveto
          3 186 172 143 141 67 rrcurveto
          hintmask 11101000
          172 -115 130 -124 -151 vvcurveto
          -173 -154 -113 -172 vhcurveto
          hintmask 11100100
          -184 -108 121 159 hvcurveto
          endchar
        </CharString>
        <CharString name="ellipsis">
          399 -17 220 hstem
          106 1218 vstem
          1112 85 rmoveto
          -67 -9 37 -35 55 hhcurveto
          61 57 43 75 10 hvcurveto
          59 8 -25 43 -72 hhcurveto
          -59 -53 -48 -70 -10 hvcurveto
          -502 hmoveto
          -67 -9 36 -35 55 hhcurveto
          61 14 callsubr
          -503 hmoveto
          -67 -9 37 -35 55 hhcurveto
          60 14 callsubr
          endchar
        </CharString>
        <CharString name="emacron">
          -79 -16 -63 callgsubr
          278 114 hstemhm
          90 157 128 514 -79 149 hintmask 11101010
          90 441 -107 callgsubr
          hintmask 00010100
          123 884 -73 callgsubr
          endchar
        </CharString>
        <CharString name="emdash">
          918 712 121 hstem
          220 1613 vstem
          220 712 rmoveto
          1590 hlineto
          23 121 rlineto
          -1591 hlineto
          endchar
        </CharString>
        <CharString name="endash">
          425 712 121 hstem
          220 1120 vstem
          220 712 rmoveto
          1097 hlineto
          23 121 rlineto
          -1097 hlineto
          endchar
        </CharString>
        <CharString name="eng">
          84 -518 81 458 -21 1019 137 -16 -20 hstemhm
          909 152 hintmask 00000000
          hintmask 11101000
          93 hmoveto
          -29 callgsubr
          97 713 rlineto
          153 107 198 153 132 hhcurveto
          100 34 -56 -108 -167 -68 -379 -42 -260 hvcurveto
          -247 -40 -76 -239 -204 hhcurveto
          -20 -50 8 13 -24 hvcurveto
          -27 -62 rlineto
          -24 22 62 -16 63 hhcurveto
          223 157 168 350 55 hvcurveto
          52 320 66 388 3 155 rrcurveto
          207 -74 86 -151 -172 -186 -134 -150 -119 vhcurveto
          hintmask 11011000
          30 268 -5 callgsubr
          endchar
        </CharString>
        <CharString name="eogonek">
          -68 -435 113 306 -63 callgsubr
          hstem
          90 157 114 148 301 149 vstem
          90 441 rmoveto
          -225 -6 106 -232 289 hhcurveto
          45 43 7 11 40 hvcurveto
          -92 -58 -154 -111 -119 vvcurveto
          -59 51 -90 137 116 85 55 39 45 vhcurveto
          -40 78 rlineto
          -38 -49 -54 -21 15 callgsubr
          258 207 61 62 hvcurveto
          -4 -2 27 23 21 23 15 21 rlinecurve
          -43 86 rlineto
          -115 -114 -125 -55 -109 hhcurveto
          -212 -45 -8 callgsubr
          8 hvcurveto
          231 12 481 120 331 vvcurveto
          141 -89 109 -190 -343 -237 -317 -398 -10 vhcurveto
          162 109 rmoveto
          228 21 153 265 222 hhcurveto
          99 63 -46 -104 -210 -333 -126 -225 -7 hvcurveto
          endchar
        </CharString>
        <CharString name="equal">
          -47 26 callgsubr
          169 867 rmoveto
          814 hlineto
          14 120 rlineto
          -815 hlineto
          -83 -629 rmoveto
          814 hlineto
          14 120 rlineto
          -815 hlineto
          endchar
        </CharString>
        <CharString name="estimated">
          262 -16 90 557 106 529 90 hstem
          113 227 726 212 vstem
          340 266 rmoveto
          365 927 vlineto
          11 51 0 64 86 vvcurveto
          -11 329 -238 200 -289 -5 rrcurveto
          -416 -7 -211 -286 -392 vvcurveto
          -430 231 -257 392 138 199 37 61 85 vhcurveto
          -30 87 rlineto
          -39 -69 -161 -56 -145 hhcurveto
          -179 -147 57 135 -87 hvcurveto
          471 vmoveto
          327 vlineto
          138 86 141 64 163 hhcurveto
          171 104 -62 -87 61 hvcurveto
          -380 vlineto
          endchar
        </CharString>
        <CharString name="eth">
          52 -17 105 959 108 543 -21 hstem
          89 160 664 152 vstem
          89 437 rmoveto
          -214 129 -240 271 375 201 407 478 277 -93 227 -210 194 vhcurveto
          -7 6 rlineto
          51 59 101 116 0 vvcurveto
          -76 69 rlineto
          0 -96 -116 -62 -68 vhcurveto
          -93 61 -122 58 -76 18 -34 -92 rcurveline
          74 -17 96 -53 83 -59 -163 -172 rcurveline
          82 -68 160 179 139 -123 74 -128 28 -195 rlinecurve
          77 -49 -115 37 -112 hhcurveto
          -284 -272 -266 -452 hvcurveto
          160 -8 rmoveto
          318 143 300 248 186 79 -152 -57 8 vhcurveto
          3 -43 -13 -103 -9 -77 rrcurveto
          -291 -39 -151 -236 -194 hhcurveto
          -170 -91 166 175 hvcurveto
          endchar
        </CharString>
        <CharString name="exclam">
          -489 4 -21 hstem
          131 440 vstem
          236 488 -63 callsubr
          endchar
        </CharString>
        <CharString name="exclamdbl">
          88 4 -21 hstemhm
          131 440 135 440 hintmask 10100000
          811 488 -63 callsubr
          hintmask 11000000
          -471 403 -63 callsubr
          endchar
        </CharString>
        <CharString name="exclamdown">
          -489 1340 21 hstem
          84 440 vstem
          419 856 rmoveto
          -120 hlineto
          -215 -1290 rlineto
          172 hlineto
          267 1693 rmoveto
          67 9 -44 35 -54 hhcurveto
          -68 -57 -43 -75 -11 hvcurveto
          -59 -8 26 -43 72 hhcurveto
          65 61 48 70 9 hvcurveto
          endchar
        </CharString>
        <CharString name="f">
          -415 21 -23 callgsubr
          hintmask 00000000
          hintmask 11011000
          167 hmoveto
          -92 callsubr
          hintmask 11101000
          -87 callsubr
          hintmask 11011000
          -9 callsubr
          hintmask 11101000
          -88 callgsubr
        </CharString>
        <CharString name="f_f">
          279 21 -23 callgsubr
          -42 737 hintmask 00000000
          hintmask 11011000
          167 hmoveto
          -92 callsubr
          hintmask 11101000
          -87 callsubr
          hintmask 11011000
          -9 callsubr
          hintmask 11101000
          -98 callgsubr
          hintmask 00000000
          -46 callsubr
          hintmask 11010100
          -87 callsubr
          hintmask 11100100
          -9 callsubr
          hintmask 11010100
          -88 callgsubr
        </CharString>
        <CharString name="f_f_i">
          -94 callgsubr
        </CharString>
        <CharString name="f_f_l">
          843 3 1634 -1616 -23 callgsubr
          -42 737 -62 371 hintmask 10000001
          1522 3 -48 callsubr
          hintmask 00000000
          -1578 -1637 rmoveto
          -92 callsubr
          hintmask 01101100
          -87 callsubr
          hintmask 01110100
          -9 callsubr
          hintmask 01101100
          -98 callgsubr
          hintmask 01110100
          -46 callsubr
          hintmask 00000000
          -87 callsubr
          hintmask 01101010
          -9 callsubr
          hintmask 01110010
          -88 callgsubr
        </CharString>
        <CharString name="f_i">
          -89 callsubr
        </CharString>
        <CharString name="f_l">
          148 3 1634 -1616 -23 callgsubr
          -61 371 hintmask 10000010
          828 3 -48 callsubr
          hintmask 00000000
          -884 -1637 rmoveto
          -92 callsubr
          hintmask 01101100
          -87 callsubr
          hintmask 01110100
          -9 callsubr
          hintmask 01101100
          -88 callgsubr
        </CharString>
        <CharString name="ffi_dflt">
          -94 callgsubr
        </CharString>
        <CharString name="fi_trk">
          -89 callsubr
        </CharString>
        <CharString name="five">
          -6 -346 115 691 117 439 128 -128 144 hstemhm
          770 175 hintmask 00000000
          hintmask 11101000
          57 -221 rmoveto
          -18 -108 rlineto
          -14 40 57 -3 33 hhcurveto
          412 364 225 331 217 -113 150 -265 -92 -103 -24 -25 -65 hvcurveto
          120 488 rlineto
          581 hlineto
          hintmask 11011000
          31 144 rlineto
          -128 hlineto
          hintmask 11101000
          -19 -16 rlineto
          -582 hlineto
          -154 -695 58 -58 rlineto
          31 67 111 38 106 hhcurveto
          184 88 -105 -173 -271 -312 -142 -309 -33 -26 3 7 -33 hvcurveto
          endchar
        </CharString>
        <CharString name="florin">
          -51 1033 119 407 119 4 -21 hstemhm
          196 822 hintmask 00000000
          hintmask 10110000
          257 -356 rmoveto
          -5 callsubr
          182 1389 rlineto
          301 hlineto
          12 119 rlineto
          -297 hlineto
          16 119 rlineto
          hintmask 11010000
          229 30 82 59 130 hhcurveto
          91 39 -19 -8 16 hvcurveto
          hintmask 10110000
          9 129 rlineto
          hintmask 11010000
          6 -12 -50 11 -89 hhcurveto
          -174 -188 -144 -306 -38 hvcurveto
          -10 -76 -250 -40 -11 -79 rlineto
          245 hlineto
          endchar
        </CharString>
        <CharString name="four">
          130 0 107 -107 127 hstemhm
          23 1096 8 callgsubr
          50 hmoveto
          647 hlineto
          -49 -375 rlineto
          145 hlineto
          47 375 rlineto
          263 hlineto
          hintmask 01100000
          16 133 -263 -11 67 527 -147 -28 rlineto
          hintmask 10100000
          -64 -507 -524 -13 108 158 577 929 -106 68 rlineto
          -38 hlineto
          -252 -452 -231 -383 -223 -349 rrcurveto
          endchar
        </CharString>
        <CharString name="foursuperior">
          84 824 115 769 -21 hstem
          131 987 vstem
          635 476 -70 callsubr
          endchar
        </CharString>
        <CharString name="fraction">
          -84 -14 callsubr
          158 804 vstem
          158 hmoveto
          -33 callsubr
        </CharString>
        <CharString name="g">
          -42 callsubr
          hstem
          79 154 vstem
          153 -344 -76 callsubr
        </CharString>
        <CharString name="gbreve">
          -42 callsubr
          149 112 12 callsubr
          187 104 hintmask 11101000
          153 -344 -103 callgsubr
          hintmask 00010100
          293 1205 -107 callsubr
          endchar
        </CharString>
        <CharString name="gcircumflex">
          -42 callsubr
          59 435 12 callsubr
          128 683 hintmask 00010100
          420 1215 -92 callgsubr
          hintmask 11101000
          -208 -1618 -76 callsubr
        </CharString>
        <CharString name="gcommaaccent">
          -42 callsubr
          97 509 12 callsubr
          331 146 hintmask 00010100
          697 1253 rmoveto
          94 92 5 40 -53 12 -36 65 3 59 rlinecurve
          4 93 48 56 56 33 2 20 rcurveline
          -61 39 -78 -18 -112 -110 -5 -161 rlinecurve
          -2 -97 51 -105 84 -18 rrcurveto
          hintmask 11101000
          -544 -1597 -76 callsubr
        </CharString>
        <CharString name="gdotaccent">
          -42 callsubr
          270 214 12 callsubr
          405 203 hintmask 11101000
          153 -344 -103 callgsubr
          hintmask 00010100
          301 1326 rmoveto
          -104 callgsubr
          endchar
        </CharString>
        <CharString name="germandbls">
          70 -16 117 1379 108 hstemhm
          678 144 94 157 -139 154 hintmask 00000000
          hintmask 11101000
          85 3 rmoveto
          -29 callgsubr
          110 881 rlineto
          497 67 149 99 177 hhcurveto
          143 55 -89 -95 -125 -72 -84 -94 -96 hvcurveto
          -51 -55 -39 -47 -85 vvcurveto
          -81 81 -100 60 -73 vhcurveto
          hintmask 11110000
          43 -60 54 -90 -99 vvcurveto
          -146 -86 -54 -163 vhcurveto
          -100 -1 -84 50 -34 31 -20 -144 rcurveline
          -25 44 107 -28 99 hhcurveto
          242 152 128 196 143 -68 100 -57 78 hvcurveto
          -62 82 -64 56 57 vvcurveto
          hintmask 11101000
          132 266 79 266 vvcurveto
          186 -127 101 -183 -212 -286 -59 -600 -78 vhcurveto
          endchar
        </CharString>
        <CharString name="grave">
          -569 20 callsubr
          452 hstem
          72 409 vstem
          416 20 callsubr
          -76 callgsubr
        </CharString>
        <CharString name="grave.cap">
          -588 1672 -21 hstem
          52 367 vstem
          363 1601 -34 callsubr
        </CharString>
        <CharString name="greater">
          258 179 1148 hstem
          250 1023 vstem
          1273 801 rmoveto
          -888 526 -15 -135 732 -432 -833 -432 -19 -149 1011 524 rlineto
          endchar
        </CharString>
        <CharString name="greaterequal">
          258 113 133 hstem
          141 1070 vstem
          1203 699 rmoveto
          8 59 -887 446 -19 -137 688 -333 -777 -339 -19 -149 rlineto
          892 -247 rmoveto
          15 114 rlineto
          -948 hlineto
          -15 -114 rlineto
          endchar
        </CharString>
        <CharString name="guillemotleft">
          768 152 934 hstemhm
          249 740 -64 740 hintmask 11000000
          249 551 -37 callsubr
          hintmask 10100000
          660 -120 -37 callsubr
          endchar
        </CharString>
        <CharString name="guillemotright">
          768 152 934 hstemhm
          226 740 -64 740 hintmask 11000000
          966 687 -37 callgsubr
          hintmask 10100000
          692 120 -37 callgsubr
          endchar
        </CharString>
        <CharString name="guilsinglleft">
          80 152 934 hstem
          237 740 vstem
          237 551 -37 callsubr
          endchar
        </CharString>
        <CharString name="guilsinglright">
          80 152 934 hstem
          193 740 vstem
          933 687 -37 callgsubr
          endchar
        </CharString>
        <CharString name="h">
          88 21 -21 1018 138 hstem
          911 151 vstem
          -88 callsubr
          55 479 rlineto
          -148 hlineto
          endchar
        </CharString>
        <CharString name="hbar">
          88 21 -21 1018 138 136 100 hstem
          911 151 vstem
          -88 callsubr
          15 134 rlineto
          299 hlineto
          13 100 rlineto
          -300 hlineto
          28 245 rlineto
          -148 hlineto
          -32 -245 rlineto
          -130 hlineto
          -13 -100 rlineto
          130 hlineto
          endchar
        </CharString>
        <CharString name="hcircumflex">
          88 21 -21 1018 138 504 136 -115 -21 hstemhm
          911 151 hintmask 00000000
          hintmask 11011000
          -88 callsubr
          33 287 55 -55 330 270 219 -265 73 53 rlineto
          hintmask 11101000
          -205 348 rlineto
          -136 hlineto
          -335 -342 21 183 rlineto
          -148 hlineto
          endchar
        </CharString>
        <CharString name="hungarumlaut">
          -192 1250 456 hstem
          49 783 vstem
          547 1250 -59 callsubr
          endchar
        </CharString>
        <CharString name="hungarumlaut.cap">
          -188 1569 427 hstem
          59 828 vstem
          529 1571 -60 callgsubr
        </CharString>
        <CharString name="hyphen">
          -18 callgsubr
        </CharString>
        <CharString name="i">
          -49 callgsubr
          305 13 callgsubr
          133 -19 callgsubr
          hintmask 11010000
          133 hmoveto
          -83 callgsubr
          hintmask 00101000
          116 285 rmoveto
          -104 callgsubr
          endchar
        </CharString>
        <CharString name="i.cy">
          -49 callgsubr
          302 13 callgsubr
          133 -19 callgsubr
          hintmask 11010000
          133 hmoveto
          -83 callgsubr
          hintmask 00101000
          -74 callsubr
          endchar
        </CharString>
        <CharString name="i.dot">
          -49 callgsubr
          302 13 callgsubr
          133 -19 callgsubr
          hintmask 11010000
          133 hmoveto
          -83 callgsubr
          hintmask 00101000
          -74 callsubr
          endchar
        </CharString>
        <CharString name="i.uc">
          -538 -69 callsubr
          197 213 17 callsubr
          -118 201 hintmask 11010000
          -77 callgsubr
          hintmask 00101000
          117 -18 callsubr
        </CharString>
        <CharString name="iacute">
          -49 callgsubr
          125 455 hstemhm
          133 303 -136 423 hintmask 00101000
          363 20 callsubr
          -90 callgsubr
          hintmask 11010000
          -167 -1304 -14 callgsubr
        </CharString>
        <CharString name="ibreve">
          -49 callgsubr
          181 112 hstemhm
          99 104 -70 303 hintmask 11001000
          133 hmoveto
          -83 callgsubr
          hintmask 00110000
          108 161 -107 callsubr
          endchar
        </CharString>
        <CharString name="icircumflex">
          -49 callgsubr
          91 435 hstemhm
          40 683 -590 303 hintmask 00110000
          99 1215 -92 callgsubr
          hintmask 11001000
          93 -1274 -14 callgsubr
        </CharString>
        <CharString name="idieresis">
          -49 callgsubr
          286 23 callgsubr
          105 203 -175 303 90 203 hintmask 00000000
          hintmask 00110100
          612 1410 -99 callsubr
          hintmask 11001000
          -58 -1410 -14 callgsubr
        </CharString>
        <CharString name="igrave">
          -49 callgsubr
          125 452 hstemhm
          38 409 -314 303 hintmask 11001000
          133 hmoveto
          -83 callgsubr
          hintmask 00110000
          95 105 -76 callgsubr
        </CharString>
        <CharString name="ij">
          33 -515 104 432 -21 1144 -20 302 13 callgsubr
          133 -19 callgsubr
          -199 688 -135 203 hintmask 10100010
          714 -77 callsubr
          hintmask 01101000
          -727 -1144 rmoveto
          -83 callgsubr
          hintmask 00010100
          -74 callsubr
          hintmask 00010001
          557 hmoveto
          -104 callgsubr
          endchar
        </CharString>
        <CharString name="imacron">
          -49 callgsubr
          310 114 hstemhm
          125 514 -506 303 hintmask 11001000
          133 hmoveto
          -83 callgsubr
          hintmask 00110000
          -162 290 -73 callgsubr
          endchar
        </CharString>
        <CharString name="infinity">
          694 229 116 534 125 hstem
          74 151 1355 151 vstem
          484 230 rmoveto
          182 2 148 136 88 134 rrcurveto
          -137 87 113 -136 197 hhcurveto
          262 170 161 248 189 -125 181 -281 -4 hvcurveto
          -179 -3 -154 -141 -87 -134 rrcurveto
          139 -90 -119 139 -202 hhcurveto
          -229 -191 -139 -265 -195 150 -179 260 4 hvcurveto
          498 392 rmoveto
          115 69 118 142 139 hhcurveto
          189 83 -120 -135 -133 -86 -146 -169 -158 -112 157 120 -73 hvcurveto
          -481 -276 rmoveto
          -196 -80 131 132 140 100 130 183 151 97 -157 -117 71 hvcurveto
          -152 -89 -116 -107 -121 hhcurveto
          endchar
        </CharString>
        <CharString name="integral">
          -68 -518 125 1953 125 hstem
          254 152 269 152 vstem
          175 -292 rmoveto
          -64 -103 rlineto
          -74 67 128 -49 128 hhcurveto
          288 105 210 280 hvcurveto
          424 -421 409 401 vvcurveto
          210 73 144 186 105 73 -36 -54 34 vhcurveto
          87 87 rlineto
          90 -58 -106 38 -131 hhcurveto
          -282 -133 -201 -278 hvcurveto
          -421 421 -413 -401 vvcurveto
          -278 -99 -86 -162 -128 -81 69 32 -30 vhcurveto
          endchar
        </CharString>
        <CharString name="iogonek">
          -504 -435 113 343 -21 1144 -20 302 214 hstem
          -113 149 246 244 vstem
          409 1426 rmoveto
          -104 callgsubr
          -260 -1424 rmoveto
          -88 -49 -174 -100 -140 vvcurveto
          -58 51 32 callsubr
          77 rlineto
          -38 -49 -55 -20 -55 hhcurveto
          -50 -37 28 52 94 154 96 79 52 hvcurveto
          28 hlineto
          155 1144 rlineto
          -149 hlineto
          endchar
        </CharString>
        <CharString name="itilde">
          -49 callgsubr
          255 0 callgsubr
          19 764 -650 303 hintmask 11000100
          133 hmoveto
          -83 callgsubr
          hintmask 00000000
          -200 272 rmoveto
          hintmask 00101000
          -1 callsubr
          hintmask 00111000
          -81 callgsubr
          hintmask 00101000
          -28 callsubr
        </CharString>
        <CharString name="j">
          -531 33 callsubr
          305 13 callgsubr
          -244 688 -123 203 hintmask 11010000
          149 -77 callsubr
          hintmask 00101000
          112 285 rmoveto
          -104 callgsubr
          endchar
        </CharString>
        <CharString name="jcircumflex">
          -534 33 callsubr
          91 435 hstemhm
          -244 688 -415 683 hintmask 11010000
          149 -77 callsubr
          hintmask 00101000
          -207 71 -43 callgsubr
        </CharString>
        <CharString name="k">
          -87 21 -30 callgsubr
          hstem
          97 906 vstem
          97 hmoveto
          -52 callsubr
        </CharString>
        <CharString name="kcommaaccent">
          -87 -539 -21 581 -30 callgsubr
          hstemhm
          97 906 -560 145 hintmask 10001000
          375 -143 -34 callgsubr
          -372 52 rmoveto
          -52 callsubr
        </CharString>
        <CharString name="kgreenlandic">
          -87 21 -21 1151 -20 hstem
          83 924 vstem
          375 625 rmoveto
          419 -625 rlineto
          173 hlineto
          -420 602 121 61 216 152 82 185 rlinecurve
          26 53 12 55 3 43 rrcurveto
          -142 hlineto
          -13 -52 -22 -53 -28 -46 -101 -170 -183 -123 -143 -81 1 -1 rcurveline
          -293 -625 rmoveto
          -29 callgsubr
          153 1151 rlineto
          -147 hlineto
          endchar
        </CharString>
        <CharString name="l">
          -547 3 1634 hstem
          133 371 vstem
          133 3 -48 callsubr
          endchar
        </CharString>
        <CharString name="lacute">
          -547 21 -21 1524 -20 171 -21 hstemhm
          133 357 -106 373 hintmask 11010000
          133 hmoveto
          2 callsubr
          208 1524 rlineto
          -148 hlineto
          hintmask 00101000
          99 79 -91 callsubr
          endchar
        </CharString>
        <CharString name="lcaron">
          -317 5 1634 -623 642 hstemhm
          133 371 226 139 hintmask 10100000
          133 5 -48 callsubr
          hintmask 01010000
          385 -623 -85 callgsubr
        </CharString>
        <CharString name="lcommaaccent">
          -547 -539 -21 563 1634 hstemhm
          133 371 -335 145 hintmask 10010000
          101 -143 -101 callgsubr
          hintmask 01100000
          -62 55 -48 callsubr
          endchar
        </CharString>
        <CharString name="ldot">
          -264 3 1634 -988 -11 callsubr
          hstemhm
          133 371 123 210 hintmask 10010000
          133 3 -48 callsubr
          hintmask 00000000
          271 -896 -60 callsubr
          hintmask 00101000
          -20 callsubr
          hintmask 01001000
          -27 callgsubr
        </CharString>
        <CharString name="less">
          258 176 1148 hstem
          197 1023 vstem
          197 702 rmoveto
          888 -526 15 135 -732 432 833 432 19 149 -1011 -524 rlineto
          endchar
        </CharString>
        <CharString name="lessequal">
          258 -1 114 hstem
          139 1065 vstem
          199 700 rmoveto
          894 -454 16 139 -691 342 770 336 16 141 -999 -445 rlineto
          -66 -760 rmoveto
          948 hlineto
          14 114 rlineto
          -948 hlineto
          endchar
        </CharString>
        <CharString name="logicalnot">
          260 718 117 hstem
          213 973 vstem
          213 718 rmoveto
          826 hlineto
          -47 -396 rlineto
          134 hlineto
          60 513 rlineto
          -960 hlineto
          endchar
        </CharString>
        <CharString name="lozenge">
          65 21 -21 hstem
          57 1071 vstem
          586 hmoveto
          11 hlineto
          531 760 rlineto
          13 vlineto
          -532 743 rlineto
          -8 hlineto
          -531 -743 rlineto
          -13 vlineto
          533 -539 rmoveto
          -368 543 rlineto
          6 vlineto
          368 528 rlineto
          3 hlineto
          371 -528 rlineto
          -3 vlineto
          -371 -546 rlineto
          endchar
        </CharString>
        <CharString name="lslash">
          -547 3 1634 hstem
          113 534 vstem
          133 3 rmoveto
          2 callsubr
          113 834 252 100 rlineto
          113 vlineto
          -236 -97 93 684 rlineto
          -148 hlineto
          -102 -748 -141 -58 rlineto
          -105 vlineto
          125 49 rlineto
          endchar
        </CharString>
        <CharString name="m">
          672 1019 137 -16 -20 hstemhm
          866 150 481 152 hintmask 00000000
          hintmask 10110000
          -82 callgsubr
          hintmask 01110000
          28 253 -5 callgsubr
          endchar
        </CharString>
        <CharString name="macron">
          -496 1434 114 hstem
          46 514 vstem
          46 1434 -73 callgsubr
          endchar
        </CharString>
        <CharString name="macron.cap">
          -496 1748 114 hstem
          44 514 vstem
          44 -13 callsubr
          endchar
        </CharString>
        <CharString name="minus">
          -18 callgsubr
        </CharString>
        <CharString name="minute">
          -487 1190 592 hstem
          301 290 vstem
          301 1190 4 callgsubr
          endchar
        </CharString>
        <CharString name="mu">
          -83 callsubr
        </CharString>
        <CharString name="multiply">
          260 328 876 hstem
          244 939 vstem
          323 328 rmoveto
          382 360 294 -359 101 95 -310 340 393 346 -79 94 -382 -363 -293 358 -101 -95 309 -339 -393 -342 rlineto
          endchar
        </CharString>
        <CharString name="n">
          84 1018 138 -16 -20 hstemhm
          909 151 8 callgsubr
          93 3 -98 callsubr
          hintmask 01100000
          29 265 -5 callgsubr
          endchar
        </CharString>
        <CharString name="nacute">
          84 1018 138 93 455 hstemhm
          573 423 -87 151 hintmask 01100000
          636 20 callsubr
          -90 callgsubr
          hintmask 00000000
          -480 -1301 -98 callsubr
          hintmask 10010000
          29 265 -5 callgsubr
          endchar
        </CharString>
        <CharString name="nbspace">
          -625 endchar
        </CharString>
        <CharString name="ncaron">
          84 1018 138 99 395 hstemhm
          352 712 -155 151 hintmask 01100000
          594 -78 callsubr
          hintmask 00000000
          -259 -1580 -98 callsubr
          hintmask 10010000
          29 265 -5 callgsubr
          endchar
        </CharString>
        <CharString name="ncommaaccent">
          84 -539 -21 1578 138 hstemhm
          452 145 312 151 hintmask 10100000
          384 -143 -101 callgsubr
          hintmask 00000000
          -385 55 -98 callsubr
          hintmask 01010000
          29 265 -5 callgsubr
          endchar
        </CharString>
        <CharString name="nine">
          134 151 116 788 106 hstem
          139 151 648 150 vstem
          205 -341 rmoveto
          34 -89 rlineto
          492 137 357 444 506 vvcurveto
          273 -133 231 -272 -352 -192 -329 -292 -197 105 -192 277 178 109 87 63 61 vhcurveto
          -100 -286 -244 -247 -320 -109 rrcurveto
          351 608 rmoveto
          -159 -107 101 193 202 107 292 252 193 96 -159 -225 -87 -12 -65 -18 -76 hvcurveto
          -51 -45 -109 -125 -198 hhcurveto
          endchar
        </CharString>
        <CharString name="notequal">
          -47 21 -21 26 callgsubr
          175 hmoveto
          121 hlineto
          165 358 rlineto
          452 hlineto
          14 120 rlineto
          -411 hlineto
          180 389 rlineto
          287 hlineto
          14 120 rlineto
          -246 hlineto
          156 337 rlineto
          -121 hlineto
          -156 -337 rlineto
          -448 hlineto
          -13 -120 rlineto
          406 hlineto
          -180 -389 rlineto
          -283 hlineto
          -13 -120 rlineto
          241 hlineto
          endchar
        </CharString>
        <CharString name="ntilde">
          84 1018 138 -16 -20 259 0 callgsubr
          293 764 -148 151 hintmask 00000000
          hintmask 10000100
          93 3 -98 callsubr
          hintmask 01000100
          29 265 -5 callgsubr
          hintmask 00000000
          114 276 rmoveto
          hintmask 00101000
          -1 callsubr
          hintmask 00111000
          -81 callgsubr
          hintmask 00101000
          -28 callsubr
        </CharString>
        <CharString name="numbersign">
          283 21 -21 365 98 463 98 hstem
          112 1195 vstem
          267 hmoveto
          124 hlineto
          62 365 rlineto
          390 hlineto
          -53 -365 rlineto
          123 hlineto
          57 365 rlineto
          239 hlineto
          6 98 rlineto
          -230 hlineto
          74 463 rlineto
          242 hlineto
          6 98 rlineto
          -233 hlineto
          55 333 rlineto
          -127 hlineto
          -56 -333 rlineto
          -388 hlineto
          51 333 rlineto
          -126 hlineto
          -53 -333 rlineto
          -232 hlineto
          -6 -98 rlineto
          222 hlineto
          -72 -463 rlineto
          -224 hlineto
          -6 -98 rlineto
          214 hlineto
          143 98 rmoveto
          73 463 rlineto
          388 hlineto
          -72 -463 rlineto
          endchar
        </CharString>
        <CharString name="o">
          -39 callgsubr
          hstem
          98 154 627 156 vstem
          -87 callgsubr
          endchar
        </CharString>
        <CharString name="oacute">
          -39 callgsubr
          93 455 19 callsubr
          319 423 -115 156 hintmask 00101000
          634 20 callsubr
          -90 callgsubr
          hintmask 11010100
          -473 -860 -105 callgsubr
          endchar
        </CharString>
        <CharString name="obreve">
          -39 callgsubr
          149 112 19 callsubr
          118 104 405 156 hintmask 11010100
          -87 callgsubr
          hintmask 00101000
          414 858 -107 callsubr
          endchar
        </CharString>
        <CharString name="ocircumflex">
          -39 callgsubr
          59 435 19 callsubr
          59 683 -115 156 hintmask 00101000
          370 1215 -92 callgsubr
          hintmask 11010100
          -213 -830 -105 callgsubr
          endchar
        </CharString>
        <CharString name="odieresis">
          -39 callgsubr
          254 213 19 callsubr
          124 11 callgsubr
          -121 156 hintmask 00000000
          hintmask 00101100
          883 1410 -99 callsubr
          hintmask 11010010
          -364 -966 -105 callgsubr
          endchar
        </CharString>
        <CharString name="oe">
          657 -16 112 -112 -63 callgsubr
          19 callsubr
          574 158 562 150 hintmask 00000000
          hintmask 10111110
          98 443 rmoveto
          -291 5 133 -168 253 hhcurveto
          157 133 78 121 98 hvcurveto
          -116 57 107 -83 174 -67 callsubr
          -42 86 rlineto
          hintmask 01111110
          -115 -115 -124 -55 -110 hhcurveto
          -212 -44 -8 callgsubr
          8 hvcurveto
          230 12 482 120 331 vvcurveto
          141 -89 109 -191 -171 -144 -79 -128 -104 vhcurveto
          136 -59 -115 71 -163 hhcurveto
          hintmask 10111110
          -336 -232 -354 -359 6 hvcurveto
          890 107 rmoveto
          228 21 151 265 224 hhcurveto
          99 63 -46 -104 -210 -333 -126 -225 -7 hvcurveto
          -736 -105 rmoveto
          266 -5 133 332 256 hhcurveto
          145 75 -97 -172 18 hvcurveto
          3 -47 -31 -87 -18 -97 -2 -102 rlinecurve
          -1 -18 0 -17 1 -17 rrcurveto
          -160 -56 -106 -133 -152 hhcurveto
          -171 -86 126 223 -3 hvcurveto
          endchar
        </CharString>
        <CharString name="ogonek">
          -623 -430 113 338 -21 hstem
          10 148 vstem
          265 hmoveto
          -87 -49 -168 -103 -138 vvcurveto
          -58 46 -82 129 -24 callsubr
          -39 -36 20 52 91 150 102 79 52 hvcurveto
          -45 46 rlineto
          endchar
        </CharString>
        <CharString name="ograve">
          -39 callgsubr
          93 452 19 callsubr
          57 409 161 156 hintmask 11010100
          -87 callgsubr
          hintmask 00101000
          401 802 -76 callgsubr
        </CharString>
        <CharString name="ohungarumlaut">
          -39 callgsubr
          94 456 19 callsubr
          132 783 -288 156 hintmask 00101000
          882 1250 -59 callsubr
          hintmask 11010100
          -286 -848 -105 callgsubr
          endchar
        </CharString>
        <CharString name="omacron">
          -39 callgsubr
          278 114 19 callsubr
          144 514 -31 156 hintmask 00101000
          396 1434 -73 callgsubr
          hintmask 11010100
          -302 -1104 -105 callgsubr
          endchar
        </CharString>
        <CharString name="one">
          -199 21 -21 1162 -20 hstem
          183 484 vstem
          349 hmoveto
          153 hlineto
          165 1143 -68 19 -108 -76 -168 -95 -140 -31 rlinecurve
          18 -98 115 24 98 43 72 29 rlinecurve
          endchar
        </CharString>
        <CharString name="onehalf">
          1403 -58 109 -30 -21 636 1009 -810 117 578 -20 hstemhm
          283 460 -49 804 562 146 hintmask 10010001
          1405 -58 -56 callsubr
          hintmask 00100100
          -907 619 -47 callgsubr
          hintmask 01001010
          116 -1455 rmoveto
          -33 callsubr
        </CharString>
        <CharString name="onequarter">
          1403 21 -21 171 115 350 1009 -590 -21 496 -20 hstemhm
          283 460 -49 804 -207 987 hintmask 01010001
          1795 -177 -70 callsubr
          hintmask 00100100
          -1381 465 -47 callgsubr
          hintmask 10001010
          116 -1455 rmoveto
          -33 callsubr
        </CharString>
        <CharString name="onesuperior">
          -141 636 1009 hstem
          258 460 vstem
          438 636 -47 callgsubr
          endchar
        </CharString>
        <CharString name="ordfeminine">
          -256 743 91 664 79 hstem
          104 134 vstem
          343 743 rmoveto
          129 83 77 63 52 hvcurveto
          -26 -140 rlineto
          128 hlineto
          146 826 -78 -21 rlineto
          15 -44 -65 14 -60 hhcurveto
          -291 -1 -213 -279 -257 vvcurveto
          -183 81 -114 158 vhcurveto
          52 91 rmoveto
          -117 -40 83 134 209 143 238 209 32 47 -13 -26 29 hvcurveto
          -85 -495 rlineto
          -57 -53 -87 -73 -78 hhcurveto
          endchar
        </CharString>
        <CharString name="ordmasculine">
          -256 733 96 669 91 hstem
          101 140 478 142 vstem
          422 733 rmoveto
          218 -4 221 174 316 vvcurveto
          215 -124 152 -198 3 vhcurveto
          -203 3 -235 -177 -315 vvcurveto
          -222 142 -142 179 -3 vhcurveto
          7 96 rmoveto
          -111 1 -77 110 173 vvcurveto
          182 101 201 187 2 vhcurveto
          131 1 59 -125 -168 vvcurveto
          -191 -88 -187 -202 1 vhcurveto
          endchar
        </CharString>
        <CharString name="oslash">
          24 -14 113 947 112 hstem
          98 154 627 156 vstem
          47 -88 rmoveto
          69 -38 128 186 rlineto
          -48 61 79 -26 97 hhcurveto
          333 227 352 360 -6 hvcurveto
          -3 161 -38 123 -76 79 138 199 rcurveline
          -69 38 -131 -188 rlineto
          31 -54 -65 17 -78 hhcurveto
          -333 -234 -349 -363 6 hvcurveto
          2 -139 31 -111 58 -78 rrcurveto
          97 129 rmoveto
          -22 54 -11 68 -1 80 rrcurveto
          268 -5 135 329 253 hhcurveto
          57 46 -15 -28 36 hvcurveto
          -444 -831 rmoveto
          497 768 34 -60 16 -83 2 -102 rlinecurve
          -268 4 -128 -328 -250 hhcurveto
          -75 -58 25 48 -42 hvcurveto
          endchar
        </CharString>
        <CharString name="otilde">
          -39 callgsubr
          223 0 callgsubr
          98 154 38 764 -175 156 hintmask 11001010
          -87 callgsubr
          hintmask 00000000
          106 969 rmoveto
          hintmask 00100100
          -1 callsubr
          hintmask 00110100
          -81 callgsubr
          hintmask 00100100
          -28 callsubr
        </CharString>
        <CharString name="p">
          52 -494 -21 499 10 callsubr
          -16 -20 hstemhm
          902 155 hintmask 00000000
          hintmask 11101000
          -30 callsubr
          hintmask 11011000
          -7 callsubr
          hintmask 11101000
          -6 callgsubr
          hintmask 11011000
          -63 -67 14 21 -51 hvcurveto
          endchar
        </CharString>
        <CharString name="paragraph">
          254 21 -21 1450 121 -99 80 hstemhm
          161 1167 hintmask 00000000
          hintmask 11010000
          430 hmoveto
          147 hlineto
          188 1450 33 1 183 -3 21 -2 rlinecurve
          -178 -1446 rlineto
          145 hlineto
          hintmask 10110000
          50 421 81 604 50 422 170 25 rcurveline
          hintmask 11010000
          8 80 rlineto
          -240 hlineto
          -102 -89 19 -185 hhcurveto
          -399 -157 -184 -270 5 hvcurveto
          4 -218 150 -120 219 -5 rrcurveto
          endchar
        </CharString>
        <CharString name="parenleft">
          -256 1716 -21 hstem
          221 159 vstem
          221 505 rmoveto
          -513 266 -261 74 -50 vhcurveto
          14 hlineto
          82 48 rlineto
          -84 69 -193 263 449 vvcurveto
          74 7 94 11 83 vhcurveto
          90 538 333 338 91 58 -67 46 rcurveline
          -98 -53 -433 -387 -78 -577 rrcurveto
          -10 -77 -5 -73 -69 vvcurveto
          endchar
        </CharString>
        <CharString name="parenright">
          -256 -288 21 hstem
          484 159 vstem
          643 923 rmoveto
          513 -266 261 -74 50 vhcurveto
          -14 hlineto
          -82 -48 rlineto
          84 -69 193 -263 -449 vvcurveto
          -74 -7 -94 -11 -83 vhcurveto
          -90 -538 -333 -338 -91 -58 67 -46 rcurveline
          98 53 433 387 78 577 rrcurveto
          10 77 5 73 69 vvcurveto
          endchar
        </CharString>
        <CharString name="partialdiff">
          257 -16 124 825 117 509 125 hstem
          171 160 722 162 vstem
          171 451 rmoveto
          -273 11 189 -194 267 hhcurveto
          444 133 433 444 381 -145 442 -490 -112 -156 -30 -72 -95 hvcurveto
          56 -95 rlineto
          39 64 107 33 105 hhcurveto
          370 118 -303 -315 11 hvcurveto
          46 -70 -99 63 -134 hhcurveto
          -326 -264 -219 -380 16 hvcurveto
          160 25 rmoveto
          291 -11 197 166 215 hhcurveto
          149 98 -63 -59 74 hvcurveto
          -304 -10 -68 -399 -323 hhcurveto
          -225 -88 160 208 -8 hvcurveto
          endchar
        </CharString>
        <CharString name="percent">
          801 -26 callgsubr
          hintmask 0000000000000000
          hintmask 1101111111000000
          414 hmoveto
          -59 callgsubr
          hintmask 1110111111000000
          -56 callgsubr
        </CharString>
        <CharString name="period">
          -607 -17 -11 callsubr
          hstemhm
          101 210 hintmask 00000000
          hintmask 01100000
          101 75 -49 callsubr
        </CharString>
        <CharString name="periodcentered">
          -424 630 -11 callsubr
          hstemhm
          243 210 hintmask 00000000
          hintmask 01100000
          243 722 -49 callsubr
        </CharString>
        <CharString name="perthousand">
          1591 -26 callgsubr
          100 123 437 130 hintmask 0110000000110000
          1827 374 rmoveto
          -2 callgsubr
          252 157 221 219 172 -81 123 -198 -239 -172 -213 -212 vhcurveto
          123 1 rmoveto
          141 98 189 169 112 58 -82 -125 -139 -87 -201 -170 9 callgsubr
          vhcurveto
          hintmask 0000000000000000
          -1536 -375 rmoveto
          -59 callgsubr
          hintmask 1101111111000000
          -56 callgsubr
        </CharString>
        <CharString name="pi">
          446 -16 131 -117 -21 1024 140 hstemhm
          858 155 hintmask 00000000
          hintmask 01110000
          121 70 rmoveto
          101 -93 58 13 51 23 38 33 rlinecurve
          88 76 56 78 21 231 86 571 rcurveline
          358 -1 -27 -164 -72 -515 -17 -103 rlinecurve
          hintmask 10110000
          -149 -21 67 -86 136 hhcurveto
          174 131 145 127 23 hvcurveto
          -84 36 rlineto
          -103 -38 -92 -74 -66 hhcurveto
          -49 -36 24 84 6 hvcurveto
          15 85 66 537 22 156 rrcurveto
          46 hlineto
          162 88 55 159 13 hvcurveto
          -108 hlineto
          -56 -19 -43 -17 -90 hhcurveto
          -730 hlineto
          -195 -105 -67 -155 -35 hvcurveto
          87 -42 rlineto
          71 34 71 53 119 hhcurveto
          70 hlineto
          -92 -527 -21 -162 -19 -108 -104 -75 rlinecurve
          hintmask 01110000
          -47 -34 -50 -21 -27 -5 rrcurveto
          endchar
        </CharString>
        <CharString name="plus">
          256 712 121 hstem
          243 912 29 callgsubr
          3 41 11 100 1 40 rlinecurve
          131 -5 rlineto
          256 hlineto
          14 121 rlineto
          -255 hlineto
          -135 24 callgsubr
          -17 -181 -158 9 rlineto
          -226 21 callsubr
          endchar
        </CharString>
        <CharString name="plusminus">
          256 30 115 567 121 hstem
          172 982 29 callgsubr
          2 41 11 99 2 41 rlinecurve
          130 -5 rlineto
          256 hlineto
          14 121 rlineto
          -256 hlineto
          -133 24 callgsubr
          -3 -40 -11 -100 -3 -41 rlinecurve
          -159 9 rlineto
          -225 21 callsubr
          -429 -506 rmoveto
          869 hlineto
          13 115 rlineto
          -869 hlineto
          endchar
        </CharString>
        <CharString name="product">
          499 1396 126 hstem
          335 170 637 170 vstem
          335 -170 rmoveto
          170 1566 637 -1566 170 1566 196 126 -1369 -126 196 hlineto
          endchar
        </CharString>
        <CharString name="q">
          36 -486 -21 491 116 946 110 4 -20 12 callsubr
          hintmask 00000000
          hintmask 11101000
          397 -16 rmoveto
          165 139 116 105 75 hvcurveto
          -24 -132 -78 -580 rlineto
          -29 callgsubr
          hintmask 11011000
          221 1667 rlineto
          hintmask 11101000
          -121 -38 rlineto
          19 -61 -78 15 -64 hhcurveto
          -438 -202 -426 -314 -257 101 -175 217 hvcurveto
          26 23 callsubr
          -114 -76 100 234 272 161 340 302 62 65 -14 -21 51 hvcurveto
          -63 -469 -3 -25 -6 -73 -7 -74 rlinecurve
          -104 -61 -145 -166 -166 hhcurveto
          endchar
        </CharString>
        <CharString name="question">
          -90 -17 -11 callsubr
          1673 123 hstemhm
          281 146 -74 209 288 139 hintmask 00000000
          hintmask 01110100
          364 470 rmoveto
          13 -1 98 38 rlineto
          -16 39 -32 70 60 260 562 -33 424 vvcurveto
          211 -112 241 -388 -79 -95 -23 -30 -29 vhcurveto
          -22 -109 rlineto
          26 69 58 13 88 hhcurveto
          180 191 -99 -248 -30 -3 -39 -9 -29 hvcurveto
          -22 -86 -133 -73 -111 -57 rrcurveto
          -185 -98 -106 -82 -125 vvcurveto
          -91 38 -85 45 -44 vhcurveto
          hintmask 01101100
          -11 -395 rmoveto
          -57 -2 40 -35 51 hhcurveto
          73 46 45 83 1 hvcurveto
          hintmask 10101100
          52 2 -25 40 -66 hhcurveto
          hintmask 01101100
          -73 -46 -58 -70 -1 hvcurveto
          endchar
        </CharString>
        <CharString name="questiondown">
          -82 -366 123 1453 220 hstemhm
          92 139 288 209 -74 147 hintmask 00000000
          hintmask 11110000
          608 1210 rmoveto
          73 46 57 70 1 hvcurveto
          58 2 -40 35 -51 hhcurveto
          -73 -46 -45 -83 -1 hvcurveto
          -52 -2 26 -40 65 hhcurveto
          hintmask 11101000
          -516 -1125 rmoveto
          -211 112 -240 388 79 95 23 30 29 vhcurveto
          22 109 rlineto
          -26 -68 -59 -13 -88 hhcurveto
          -180 -191 99 248 29 3 40 9 29 hvcurveto
          22 85 133 74 111 57 rrcurveto
          186 98 106 82 125 vvcurveto
          90 -38 86 -45 44 vhcurveto
          -14 1 -98 -38 rlineto
          16 -39 32 -71 -59 -261 -562 33 -424 vvcurveto
          endchar
        </CharString>
        <CharString name="quotedbl">
          -107 966 721 hstemhm
          240 262 217 262 hintmask 11000000
          240 966 -3 callsubr
          hintmask 10100000
          391 -721 -3 callsubr
          endchar
        </CharString>
        <CharString name="quotedblbase">
          7 -458 21 -5 21 hstemhm
          341 165 314 165 8 callgsubr
          336 292 -69 callgsubr
          hintmask 00000000
          479 hmoveto
          -42 callgsubr
          hintmask 10010000
          -33 callgsubr
          hintmask 01010000
          -73 callsubr
          endchar
        </CharString>
        <CharString name="quotedblleft">
          20 1660 -21 37 -21 hstemhm
          192 165 314 165 hintmask 00000000
          hintmask 01010000
          841 926 rmoveto
          4 callsubr
          hintmask 10010000
          18 callsubr
          hintmask 01010000
          -41 callsubr
          hintmask 00000000
          -479 hmoveto
          4 callsubr
          hintmask 01100000
          18 callsubr
          hintmask 10100000
          -41 callsubr
          endchar
        </CharString>
        <CharString name="quotedblright">
          18 981 21 -5 21 hstemhm
          514 165 314 165 hintmask 00000000
          hintmask 10010000
          988 1731 -16 callsubr
          hintmask 01010000
          -33 callgsubr
          hintmask 10010000
          -73 callsubr
          hintmask 00000000
          -479 hmoveto
          -42 callgsubr
          hintmask 10100000
          -33 callgsubr
          hintmask 01100000
          -73 callsubr
          endchar
        </CharString>
        <CharString name="quoteleft">
          -459 1660 -21 37 -21 hstemhm
          192 165 hintmask 00000000
          hintmask 01100000
          362 926 rmoveto
          4 callsubr
          hintmask 10100000
          18 callsubr
          hintmask 01100000
          -41 callsubr
          endchar
        </CharString>
        <CharString name="quotereversed">
          -459 892 823 hstem
          186 157 vstem
          384 892 rmoveto
          78 67 3 16 -67 59 -88 155 45 191 rlinecurve
          19 78 54 85 80 32 4 32 rcurveline
          -66 108 -90 -12 -116 -114 -36 -137 rlinecurve
          -69 -277 141 -190 108 -93 rrcurveto
          endchar
        </CharString>
        <CharString name="quoteright">
          -443 981 21 -5 21 hstemhm
          481 165 8 callgsubr
          476 1731 -69 callgsubr
          endchar
        </CharString>
        <CharString name="quotesinglbase">
          -472 -458 21 -5 21 hstemhm
          341 165 8 callgsubr
          336 292 -69 callgsubr
          endchar
        </CharString>
        <CharString name="quotesingle">
          -586 966 721 hstem
          240 262 vstem
          240 966 -3 callsubr
          endchar
        </CharString>
        <CharString name="r">
          27 callsubr
          -16 -20 23 13 hstemhm
          93 713 hintmask 00000000
          hintmask 11001000
          93 hmoveto
          -51 callgsubr
          hintmask 10011000
          33 158 rlineto
          hintmask 11001000
          -40 callgsubr
          hintmask 10101000
          2 callgsubr
        </CharString>
        <CharString name="racute">
          27 callsubr
          -13 13 93 455 hstemhm
          93 713 -550 423 hintmask 00010100
          319 20 callsubr
          -90 callgsubr
          hintmask 00000000
          -163 -1304 rmoveto
          -51 callgsubr
          hintmask 11001000
          33 158 rlineto
          hintmask 10101000
          -40 callgsubr
          hintmask 11001000
          2 callgsubr
        </CharString>
        <CharString name="radical">
          462 -354 2224 hstem
          86 1490 vstem
          154 490 rmoveto
          142 81 410 -925 rlineto
          135 hlineto
          735 2224 rlineto
          -161 hlineto
          -649 -2027 -356 871 -5 callgsubr
          -183 -112 rlineto
          endchar
        </CharString>
        <CharString name="rcaron">
          27 callsubr
          -13 13 99 395 hstemhm
          35 712 -654 713 hintmask 00011000
          277 -78 callsubr
          hintmask 00000000
          58 -1583 rmoveto
          -51 callgsubr
          hintmask 11000100
          33 158 rlineto
          hintmask 10100100
          -40 callgsubr
          hintmask 11000100
          2 callgsubr
        </CharString>
        <CharString name="rcommaaccent">
          -332 -539 -21 581 -21 998 158 -13 13 hstemhm
          93 713 -701 145 hintmask 10000100
          37 -143 -101 callgsubr
          hintmask 00000000
          -38 52 rmoveto
          -51 callgsubr
          hintmask 01101000
          33 158 rlineto
          hintmask 01011000
          -40 callgsubr
          hintmask 01101000
          2 callgsubr
        </CharString>
        <CharString name="registered">
          951 90 100 648 99 371 102 276 97 hstem
          196 110 426 136 385 141 373 -58 callgsubr
          426 -471 rmoveto
          136 371 hlineto
          36 103 0 1 19 hvcurveto
          89 -30 48 -112 44 -92 25 -53 21 -44 29 -40 156 -1 rcurveline
          -49 76 -21 34 -24 44 -45 85 -44 100 -74 52 rrcurveto
          157 35 56 114 141 vvcurveto
          146 -107 116 -241 -104 -80 -7 1 -70 vhcurveto
          -60 hlineto
          136 -464 rmoveto
          359 vlineto
          39 6 44 2 59 1 rrcurveto
          190 4 53 -76 -105 vvcurveto
          -127 -70 -66 -149 -1 vhcurveto
          -26 -118 1 2 -22 hvcurveto
          endchar
        </CharString>
        <CharString name="ring">
          -387 1258 83 356 84 hstem
          99 35 callgsubr
          vstem
          378 1258 -71 callsubr
          endchar
        </CharString>
        <CharString name="ring.cap">
          -387 1483 82 351 84 hstem
          54 35 callgsubr
          vstem
          333 1483 -47 callsubr
        </CharString>
        <CharString name="s">
          -238 -54 callgsubr
          hstem
          173 143 265 148 vstem
          45 48 -102 callsubr
          endchar
        </CharString>
        <CharString name="sacute">
          -238 -54 callgsubr
          93 455 17 callgsubr
          134 423 -292 148 hintmask 00101000
          513 20 callsubr
          -90 callgsubr
          hintmask 11010100
          -405 -1256 -102 callsubr
          endchar
        </CharString>
        <CharString name="scaron">
          -238 -54 callgsubr
          99 395 17 callgsubr
          -87 712 -360 148 hintmask 00101000
          471 -78 callsubr
          hintmask 11010100
          -184 -1535 -102 callsubr
          endchar
        </CharString>
        <CharString name="scedilla">
          -238 -465 126 323 113 -85 -21 1053 112 17 callgsubr
          14 131 120 148 hintmask 00000000
          hintmask 11011010
          45 48 rmoveto
          hintmask 11011110
          34 -31 120 -30 123 -3 rrcurveto
          6 -38 2 -50 -42 -45 callgsubr
          -67 callgsubr
          hvcurveto
          hintmask 10111110
          73 -12 57 -18 42 vhcurveto
          175 24 123 101 173 vvcurveto
          169 -144 98 -95 72 vhcurveto
          hintmask 11011010
          -83 64 -91 60 121 vvcurveto
          104 90 67 144 131 82 -56 -16 12 vhcurveto
          29 140 rlineto
          17 -33 -99 27 -122 hhcurveto
          -203 -174 -104 -198 -165 110 -86 106 -83 hvcurveto
          94 -74 98 -62 -112 vvcurveto
          -121 -103 -54 -131 -131 -101 51 30 -42 vhcurveto
          endchar
        </CharString>
        <CharString name="scircumflex">
          -238 -54 callgsubr
          59 435 17 callgsubr
          -126 683 -292 148 hintmask 00101000
          249 1215 -92 callgsubr
          hintmask 11010100
          -145 -1226 -102 callsubr
          endchar
        </CharString>
        <CharString name="second">
          -99 1190 592 hstemhm
          301 290 98 290 hintmask 11000000
          301 1190 4 callgsubr
          hintmask 10100000
          254 -592 4 callgsubr
          endchar
        </CharString>
        <CharString name="section">
          84 -186 119 1624 116 hstemhm
          202 159 -119 158 488 156 -110 157 hintmask 00000000
          hintmask 11011000
          128 -65 rmoveto
          -45 45 159 -76 176 hhcurveto
          294 247 125 250 -5 hvcurveto
          -2 77 -37 61 -56 49 rrcurveto
          hintmask 11010100
          88 70 55 91 -1 129 -3 186 -178 108 -174 78 -203 94 -140 56 7 170 rrcurveto
          131 6 154 68 168 hhcurveto
          104 153 -33 -72 57 hvcurveto
          48 116 rlineto
          43 -50 -110 62 -192 hhcurveto
          -269 -230 -113 -217 3 hvcurveto
          2 -120 60 -88 84 -69 rrcurveto
          hintmask 11101000
          -114 -54 -74 -79 2 -123 3 -217 187 -115 187 -74 rrcurveto
          196 -76 113 -66 -108 vvcurveto
          -171 -193 -50 -185 -140 -152 62 56 -47 vhcurveto
          498 473 rmoveto
          -193 88 -123 58 8 164 3 74 49 58 69 35 54 -32 57 -26 56 -24 rrcurveto
          hintmask 11010100
          212 -94 73 -79 -107 vvcurveto
          -88 -39 -63 -51 -42 vhcurveto
          hintmask 11101000
          -55 30 -61 25 -59 23 rrcurveto
          endchar
        </CharString>
        <CharString name="semicolon">
          -607 -480 -21 1316 -11 callsubr
          hstemhm
          184 159 -159 210 hintmask 10010000
          -41 callgsubr
          hintmask 00000000
          88 739 -60 callsubr
          hintmask 00101000
          -20 callsubr
          hintmask 01001000
          -27 callgsubr
        </CharString>
        <CharString name="seven">
          -47 1022 121 -34 35 hstemhm
          98 935 8 callgsubr
          278 -264 rmoveto
          137 -51 rlineto
          hintmask 01100000
          618 1424 rlineto
          hintmask 10100000
          -26 35 rlineto
          -883 hlineto
          -26 -123 764 3 rlineto
          endchar
        </CharString>
        <CharString name="six">
          134 -16 106 780 116 hstem
          149 151 647 151 vstem
          149 488 rmoveto
          -273 130 -231 273 352 194 329 292 194 -95 187 -261 -187 -121 -83 -59 -66 vhcurveto
          99 289 244 240 318 111 -33 88 rcurveline
          -492 -137 -355 -441 -506 vvcurveto
          151 -14 rmoveto
          87 10 65 18 76 vhcurveto
          49 46 121 119 211 hhcurveto
          145 96 -98 -188 -202 -109 -292 -252 -193 -93 159 225 hvcurveto
          endchar
        </CharString>
        <CharString name="slash">
          -28 callgsubr
        </CharString>
        <CharString name="space">
          -625 endchar
        </CharString>
        <CharString name="sterling">
          258 -25 108 -77 -21 766 100 586 108 hstemhm
          1100 157 hintmask 00000000
          hintmask 01111000
          15 57 rmoveto
          -60 -9 36 -12 32 hhcurveto
          70 88 53 55 44 hvcurveto
          hintmask 10111000
          -41 132 168 -77 231 hhcurveto
          375 74 196 144 1 hvcurveto
          1 113 -58 95 -77 64 -119 -91 rcurveline
          52 -33 44 -75 -76 vvcurveto
          -137 -89 -92 -223 -178 -143 71 27 -99 vhcurveto
          87 126 26 111 36 221 20 112 rcurveline
          333 hlineto
          13 100 rlineto
          -329 hlineto
          24 131 rlineto
          329 55 156 126 143 hhcurveto
          113 73 -46 -34 24 hvcurveto
          71 107 rlineto
          68 -64 -81 13 -113 hhcurveto
          -324 1 -164 -278 -44 -288 -22 -129 rcurveline
          -190 hlineto
          -14 -100 rlineto
          187 hlineto
          -44 -263 -15 -96 -36 -145 -67 -54 rlinecurve
          hintmask 01111000
          -82 -117 -78 -58 -8 hvcurveto
          endchar
        </CharString>
        <CharString name="summation">
          419 -170 119 1447 126 -63 63 hstemhm
          227 1075 hintmask 00000000
          hintmask 11010000
          227 -128 rmoveto
          20 -42 rlineto
          1055 119 -843 hlineto
          505 733 -517 714 rlineto
          840 126 -1036 hlineto
          hintmask 10110000
          -23 -63 560 -781 rlineto
          endchar
        </CharString>
        <CharString name="t">
          -371 -16 119 918 119 hstem
          166 154 vstem
          166 156 -91 callgsubr
          endchar
        </CharString>
        <CharString name="tbar">
          -371 -16 119 534 100 284 119 hstem
          166 154 vstem
          166 156 rmoveto
          -114 64 -58 111 113 144 88 48 40 vhcurveto
          -20 84 rlineto
          -31 -39 -116 -70 -64 hhcurveto
          -65 -14 57 59 32 7 44 9 67 hvcurveto
          36 275 rlineto
          293 hlineto
          12 100 rlineto
          -292 hlineto
          38 284 rlineto
          290 hlineto
          18 119 rlineto
          -291 hlineto
          36 279 rlineto
          -126 hlineto
          -56 -279 -127 -1 -31 -118 rlineto
          135 hlineto
          -36 -284 rlineto
          -140 hlineto
          -12 -100 rlineto
          139 hlineto
          -44 -347 rlineto
          -1 callgsubr
          endchar
        </CharString>
        <CharString name="tcaron">
          -371 -16 119 918 119 108 642 hstemhm
          166 154 400 139 hintmask 11010000
          166 156 -91 callgsubr
          hintmask 00101000
          565 1092 -85 callgsubr
        </CharString>
        <CharString name="thorn">
          49 -495 -21 500 10 callsubr
          hstem
          906 154 vstem
          95 2 rmoveto
          -75 -518 rlineto
          145 hlineto
          62 416 15 108 rlineto
          -13 56 66 -11 55 -81 callsubr
          endchar
        </CharString>
        <CharString name="three">
          -10 -327 117 617 74 538 141 hstemhm
          752 174 -155 169 hintmask 00000000
          hintmask 11110000
          55 -200 rmoveto
          -13 -115 rlineto
          -8 65 53 -4 50 hhcurveto
          350 366 195 308 162 -117 143 -237 hvcurveto
          hintmask 11101000
          187 67 181 150 181 vvcurveto
          196 -157 85 -170 -214 -173 -99 -65 -67 vhcurveto
          47 -112 rlineto
          65 89 112 70 154 hhcurveto
          134 76 -70 -98 -199 -228 -103 -255 -62 hvcurveto
          -13 -131 25 8 126 31 27 12 rlinecurve
          hintmask 11110000
          218 -2 81 -102 -140 vvcurveto
          -235 -271 -138 -282 -38 -55 4 6 -51 vhcurveto
          endchar
        </CharString>
        <CharString name="threequarters">
          1403 171 115 245 100 424 -21 24 69 409 108 hstemhm
          744 158 -156 169 376 987 hintmask 10100001
          1795 -177 -70 callsubr
          hintmask 00000000
          -1722 431 -15 callgsubr
          hintmask 01011100
          -52 callgsubr
          hintmask 01011010
          -8 callsubr
          hintmask 01011100
          594 -686 rmoveto
          -33 callsubr
        </CharString>
        <CharString name="threesuperior">
          -45 531 100 427 69 409 108 hstemhm
          754 158 -156 169 hintmask 00000000
          hintmask 11110000
          132 602 -15 callgsubr
          hintmask 11101000
          -52 callgsubr
          hintmask 11110000
          -8 callsubr
          endchar
        </CharString>
        <CharString name="tilde">
          -295 1379 0 callgsubr
          9 764 8 callgsubr
          77 1416 rmoveto
          hintmask 11100000
          -1 callsubr
          hintmask 10100000
          -81 callgsubr
          hintmask 11100000
          -28 callsubr
        </CharString>
        <CharString name="tilde.cap">
          -297 1693 9 callsubr
          30 764 8 callgsubr
          97 1733 rmoveto
          hintmask 11100000
          -2 callsubr
          hintmask 10100000
          -82 callsubr
          hintmask 11100000
          -13 callgsubr
          endchar
        </CharString>
        <CharString name="trademark">
          1001 1419 111 -70 70 hstemhm
          1793 135 8 callgsubr
          917 754 rmoveto
          124 hlineto
          102 532 rlineto
          hintmask 01100000
          31 174 44 -167 148 -547 rlineto
          98 hlineto
          303 605 54 107 -14 -220 -27 -484 rlineto
          133 hlineto
          hintmask 10100000
          32 776 rlineto
          -218 hlineto
          -292 -619 -38 147 -120 472 rlineto
          -208 hlineto
          -715 -777 rmoveto
          131 1 90 665 rlineto
          273 hlineto
          13 111 rlineto
          -666 hlineto
          -17 -111 rlineto
          266 hlineto
          endchar
        </CharString>
        <CharString name="two">
          139 0 117 921 122 hstem
          867 168 vstem
          87 hmoveto
          950 hlineto
          21 132 -781 -29 rlineto
          354 176 404 250 298 vvcurveto
          175 -112 158 -260 -212 -173 -113 -85 -81 vhcurveto
          56 -87 rlineto
          63 76 129 100 163 hhcurveto
          167 79 -81 -146 -239 -415 -279 -390 -191 hvcurveto
          endchar
        </CharString>
        <CharString name="twosuperior">
          58 637 109 784 117 hstem
          867 146 vstem
          212 637 -56 callsubr
          endchar
        </CharString>
        <CharString name="u">
          -57 callgsubr
          -27 callsubr
          hintmask 00000000
          hintmask 10110000
          113 266 -84 callsubr
          hintmask 01110000
          -86 callgsubr
          hintmask 10110000
          -104 callsubr
          endchar
        </CharString>
        <CharString name="uacute">
          -57 callgsubr
          129 455 -27 callsubr
          309 423 hintmask 00010100
          637 20 callsubr
          -90 callgsubr
          hintmask 00000000
          -461 -1038 -84 callsubr
          hintmask 10101000
          -86 callgsubr
          hintmask 01101000
          -104 callsubr
          endchar
        </CharString>
        <CharString name="ubreve">
          -57 callgsubr
          185 112 -27 callsubr
          108 104 -96 callgsubr
          556 1039 -107 callsubr
          endchar
        </CharString>
        <CharString name="ucircumflex">
          -57 callgsubr
          95 435 -27 callsubr
          49 683 hintmask 00010100
          373 1215 -92 callgsubr
          hintmask 00000000
          -201 -1008 -84 callsubr
          hintmask 10101000
          -86 callgsubr
          hintmask 01101000
          -104 callsubr
          endchar
        </CharString>
        <CharString name="udieresis">
          -57 callgsubr
          290 213 -27 callsubr
          114 11 callgsubr
          hintmask 00000000
          hintmask 00010110
          886 1410 -99 callsubr
          hintmask 00000000
          -352 -1144 -84 callsubr
          hintmask 10101000
          -86 callgsubr
          hintmask 01101000
          -104 callsubr
          endchar
        </CharString>
        <CharString name="ugrave">
          -57 callgsubr
          129 452 -27 callsubr
          47 409 -96 callgsubr
          543 983 -76 callgsubr
        </CharString>
        <CharString name="uhungarumlaut">
          -57 callgsubr
          130 456 -27 callsubr
          122 783 -96 callgsubr
          772 984 -59 callsubr
          endchar
        </CharString>
        <CharString name="umacron">
          -57 callgsubr
          314 114 -27 callsubr
          134 514 -96 callgsubr
          286 1168 -73 callgsubr
          endchar
        </CharString>
        <CharString name="underscore">
          225 -338 115 hstem
          -111 1393 vstem
          -96 -223 rmoveto
          -15 -115 rlineto
          1378 hlineto
          15 115 rlineto
          endchar
        </CharString>
        <CharString name="uni0001">
          endchar
        </CharString>
        <CharString name="uni0002">
          endchar
        </CharString>
        <CharString name="uni0003">
          endchar
        </CharString>
        <CharString name="uni0004">
          endchar
        </CharString>
        <CharString name="uni0005">
          endchar
        </CharString>
        <CharString name="uni0006">
          endchar
        </CharString>
        <CharString name="uni0007">
          endchar
        </CharString>
        <CharString name="uni0008">
          endchar
        </CharString>
        <CharString name="uni0015">
          endchar
        </CharString>
        <CharString name="uni0016">
          endchar
        </CharString>
        <CharString name="uni0017">
          endchar
        </CharString>
        <CharString name="uni0018">
          endchar
        </CharString>
        <CharString name="uni0019">
          endchar
        </CharString>
        <CharString name="uni00AD">
          596 endchar
        </CharString>
        <CharString name="uni0162">
          12 -465 126 360 11 callsubr
          hstem
          431 131 vstem
          173 -321 rmoveto
          -67 callgsubr
          79 -14 59 -21 43 hvcurveto
          33 -61 callgsubr
          -179 -1419 rlineto
          10 hlineto
          8 -40 3 -57 -49 -45 callgsubr
          endchar
        </CharString>
        <CharString name="uni0163">
          -371 -465 126 324 118 -97 -21 1036 119 hstemhm
          166 154 -60 131 hintmask 00000000
          hintmask 10111000
          166 156 rmoveto
          -78 29 -51 54 -25 vhcurveto
          hintmask 10110100
          8 -40 3 -59 -49 -45 callgsubr
          -67 callgsubr
          70 -11 55 -17 41 hvcurveto
          109 10 128 80 38 45 -20 84 rcurveline
          hintmask 11011000
          -31 -39 -116 -70 -64 hhcurveto
          -65 -14 57 59 32 7 44 9 67 hvcurveto
          87 659 rlineto
          290 hlineto
          18 119 rlineto
          -291 hlineto
          36 279 rlineto
          -126 hlineto
          -56 -279 -127 -1 -31 -118 rlineto
          135 hlineto
          -93 -731 rlineto
          hintmask 10111000
          -1 callgsubr
          endchar
        </CharString>
        <CharString name="uni0218">
          -66 -539 -21 544 118 1329 116 hstemhm
          187 151 31 145 251 157 hintmask 10001000
          301 -143 -101 callgsubr
          hintmask 01110100
          -366 125 -74 callgsubr
        </CharString>
        <CharString name="uni0219">
          -238 -539 -21 544 113 947 112 17 callgsubr
          2 145 118 148 hintmask 10001000
          250 -143 -101 callgsubr
          hintmask 01110100
          -299 100 -102 callsubr
          endchar
        </CharString>
        <CharString name="uni021A">
          12 -539 -21 581 11 callsubr
          hstemhm
          138 1061 -780 145 hintmask 10001000
          351 -143 -34 callgsubr
          -35 52 rmoveto
          150 -61 callgsubr
          rlineto
          endchar
        </CharString>
        <CharString name="uni021B">
          -371 -539 -21 544 119 918 119 hstemhm
          166 154 -72 145 hintmask 10001000
          180 -143 -34 callgsubr
          -108 208 -91 callgsubr
          endchar
        </CharString>
        <CharString name="uni02c9">
          -496 1748 114 hstem
          59 514 vstem
          59 -13 callsubr
          endchar
        </CharString>
        <CharString name="uni0394">
          -44 callsubr
        </CharString>
        <CharString name="uni03A9">
          547 25 callgsubr
          150 35 callsubr
          70 -71 callgsubr
        </CharString>
        <CharString name="uni03BC">
          -83 callsubr
        </CharString>
        <CharString name="uni1E02">
          18 callgsubr
          197 23 callgsubr
          591 201 179 160 -143 151 hintmask 0000011000000000
          675 1707 -97 callsubr
          hintmask 0000000000000000
          -554 -1707 rmoveto
          70 hlineto
          71 119 -14 77 hhcurveto
          hintmask 0111000100000000
          0 callsubr
          hintmask 1011000100000000
          3 callgsubr
          hintmask 1011000010000000
          28 callsubr
          hintmask 1010100100000000
          -19 callsubr
          hintmask 1011000010000000
          -72 -91 -3 3 -71 hvcurveto
          hintmask 1010100100000000
          -38 callgsubr
        </CharString>
        <CharString name="uni1E03">
          49 -16 10 callsubr
          270 13 callgsubr
          734 203 -31 154 hintmask 11001000
          95 2 rmoveto
          84 25 rlineto
          -22 63 100 -21 77 -81 callsubr
          hintmask 00110000
          561 1297 rmoveto
          -104 callgsubr
          endchar
        </CharString>
        <CharString name="uni1E0A">
          -12 callgsubr
          197 23 callgsubr
          692 201 249 156 hintmask 00001100
          776 1707 -97 callsubr
          hintmask 00000000
          -655 -1707 rmoveto
          -22 callgsubr
          hintmask 01100010
          -70 callgsubr
          hintmask 10100010
          -20 callgsubr
          -27 -1405 rmoveto
          hintmask 10010010
          162 1290 -72 callgsubr
          hintmask 10100010
          -25 callgsubr
        </CharString>
        <CharString name="uni1E0B">
          7 callgsubr
          270 214 12 callsubr
          156 203 hintmask 00000000
          hintmask 10101000
          -31 callgsubr
          hintmask 01101000
          -55 callgsubr
          hintmask 10101000
          -78 callgsubr
          hintmask 00010100
          52 1326 rmoveto
          -104 callgsubr
          endchar
        </CharString>
        <CharString name="uni1E1E">
          33 callgsubr
          178 213 21 callgsubr
          972 -472 201 hintmask 00010100
          705 1707 -97 callsubr
          hintmask 11101000
          -584 -1707 rmoveto
          -24 callgsubr
        </CharString>
        <CharString name="uni1E1F">
          -415 8 callsubr
          422 116 -5 -21 72 214 -4 callsubr
          -536 203 hintmask 00001010
          439 1724 rmoveto
          -104 callgsubr
          hintmask 00000000
          -272 -1724 rmoveto
          -92 callsubr
          hintmask 11010100
          -87 callsubr
          hintmask 11100100
          -9 callsubr
          hintmask 11010100
          -88 callgsubr
        </CharString>
        <CharString name="uni1E40">
          36 callgsubr
          177 23 callgsubr
          72 1548 -661 201 hintmask 00010100
          1043 1707 -97 callsubr
          hintmask 00000000
          -971 -1707 rmoveto
          24 callsubr
          hintmask 01101000
          31 callgsubr
          hintmask 10101000
          -38 callsubr
        </CharString>
        <CharString name="uni1E41">
          672 1019 137 -16 -20 306 13 callgsubr
          866 150 -105 203 383 152 hintmask 00000000
          hintmask 10010100
          -82 callgsubr
          hintmask 01010100
          28 253 -5 callgsubr
          hintmask 00101000
          749 286 rmoveto
          -104 callgsubr
          endchar
        </CharString>
        <CharString name="uni1E56">
          25 callsubr
          197 23 callgsubr
          681 201 132 152 hintmask 00001100
          765 1707 -97 callsubr
          hintmask 00000000
          -644 -1707 rmoveto
          -29 callsubr
          hintmask 11100010
          26 callsubr
          hintmask 11010010
          -25 callsubr
          hintmask 11100010
          -63 -1 -98 10 -41 8 rrcurveto
          endchar
        </CharString>
        <CharString name="uni1E57">
          52 -494 -21 499 10 callsubr
          -16 -20 306 13 callgsubr
          633 203 66 155 hintmask 00000000
          hintmask 11100010
          -30 callsubr
          hintmask 11010010
          -7 callsubr
          hintmask 11100010
          -6 callgsubr
          hintmask 11010010
          -63 -67 14 21 -51 hvcurveto
          hintmask 00001100
          460 1297 rmoveto
          -104 callgsubr
          endchar
        </CharString>
        <CharString name="uni1E60">
          -21 callsubr
          160 23 callgsubr
          187 151 263 201 -37 157 hintmask 00101000
          685 1707 -97 callsubr
          hintmask 11010100
          -656 -1634 -74 callgsubr
        </CharString>
        <CharString name="uni1E61">
          -238 -54 callgsubr
          270 214 17 callgsubr
          151 203 -89 148 hintmask 11010100
          45 48 -102 callsubr
          hintmask 00101000
          480 1248 rmoveto
          -104 callgsubr
          endchar
        </CharString>
        <CharString name="uni1E6A">
          12 21 11 callsubr
          178 23 callgsubr
          138 1061 -552 201 hintmask 00101000
          731 1707 -97 callsubr
          hintmask 11010000
          -321 -1707 rmoveto
          150 -61 callgsubr
          rlineto
          endchar
        </CharString>
        <CharString name="uni1E6B">
          -371 -16 119 918 119 391 13 callgsubr
          166 154 18 203 hintmask 11010000
          166 156 -91 callgsubr
          hintmask 00101000
          258 1375 rmoveto
          -104 callgsubr
          endchar
        </CharString>
        <CharString name="uni2113">
          96 -16 123 1438 135 hstem
          283 130 523 129 vstem
          76 131 rmoveto
          96 -83 56 43 54 46 54 47 rlinecurve
          -130 52 89 -70 113 hhcurveto
          232 123 205 222 47 hvcurveto
          -124 19 rlineto
          -216 -35 -112 -107 -117 hhcurveto
          -70 -62 52 120 -33 hvcurveto
          359 347 267 423 404 vvcurveto
          133 -67 94 -114 -341 -260 -621 -547 -70 5 -63 10 -57 vhcurveto
          -69 -64 -74 -64 -79 -63 rrcurveto
          339 306 rmoveto
          -2 24 0 25 27 vvcurveto
          451 207 581 227 56 33 -54 -63 -307 -187 -343 -334 -341 vhcurveto
          endchar
        </CharString>
        <CharString name="uni2215">
          -28 callgsubr
        </CharString>
        <CharString name="uni2219">
          -424 630 -11 callsubr
          hstemhm
          243 210 hintmask 00000000
          hintmask 01100000
          243 722 -49 callsubr
        </CharString>
        <CharString name="uogonek">
          70 -435 113 303 130 -90 -30 callgsubr
          -27 callsubr
          250 148 hintmask 00000000
          hintmask 11011100
          113 266 -84 callsubr
          -29 -258 -1 -1 rlineto
          -89 -49 -175 -100 -140 vvcurveto
          -59 51 -90 137 -24 callsubr
          -51 -37 28 52 hvcurveto
          hintmask 10111100
          94 155 96 79 52 vhcurveto
          21 hlineto
          152 1140 rlineto
          -149 hlineto
          -95 -725 rlineto
          hintmask 11011100
          -104 callsubr
          endchar
        </CharString>
        <CharString name="uring">
          -57 callgsubr
          138 83 356 84 -27 callsubr
          148 35 callgsubr
          hintmask 00011011
          692 1258 -71 callsubr
          hintmask 00000000
          -585 -1075 -84 callsubr
          hintmask 10100100
          -86 callgsubr
          hintmask 01100100
          -104 callsubr
          endchar
        </CharString>
        <CharString name="utilde">
          -57 callgsubr
          259 0 callgsubr
          113 152 28 764 hintmask 00000000
          hintmask 10100100
          113 266 -84 callsubr
          hintmask 01100100
          -86 callgsubr
          hintmask 10100100
          -104 callsubr
          hintmask 00000000
          248 1150 rmoveto
          hintmask 00010010
          -1 callsubr
          hintmask 00011010
          -81 callgsubr
          hintmask 00010010
          -28 callsubr
        </CharString>
        <CharString name="v">
          -103 7 -21 1154 -20 hstem
          835 144 vstem
          286 -14 rmoveto
          135 10 181 210 179 213 178 296 20 289 rlinecurve
          3 55 -1 44 -4 37 rrcurveto
          -142 hlineto
          5 -39 -18 -138 -12 -71 -41 -234 -91 -149 -128 -184 -167 -209 rcurveline
          -22 238 -82 786 rlineto
          -165 hlineto
          114 -786 rlineto
          endchar
        </CharString>
        <CharString name="w">
          -12 callsubr
          hstem
          1434 147 vstem
          292 -14 -103 callsubr
          endchar
        </CharString>
        <CharString name="wacute">
          -12 callsubr
          129 455 hstemhm
          828 423 183 147 hintmask 00110000
          891 20 callsubr
          -90 callgsubr
          hintmask 11001000
          -536 -1318 -103 callsubr
          endchar
        </CharString>
        <CharString name="wcircumflex">
          -12 callsubr
          95 435 hstemhm
          568 683 183 147 hintmask 00110000
          627 1215 -92 callgsubr
          hintmask 11001000
          -276 -1288 -103 callsubr
          endchar
        </CharString>
        <CharString name="wdieresis">
          -12 callsubr
          290 23 callgsubr
          633 11 callgsubr
          177 147 hintmask 00000000
          hintmask 00111000
          1140 1410 -99 callsubr
          hintmask 11000100
          -427 -1424 -103 callsubr
          endchar
        </CharString>
        <CharString name="wgrave">
          -12 callsubr
          129 452 hstemhm
          566 409 459 147 hintmask 11001000
          292 -14 -103 callsubr
          hintmask 00110000
          675 895 -76 callgsubr
        </CharString>
        <CharString name="x">
          -161 1140 -20 hstem
          -43 1009 vstem
          -43 3 rmoveto
          160 hlineto
          328 472 202 -472 rlineto
          174 hlineto
          -283 570 428 567 rlineto
          -163 hlineto
          -316 -449 -176 449 rlineto
          -178 hlineto
          261 -549 rlineto
          endchar
        </CharString>
        <CharString name="y">
          -22 callsubr
          hstem
          835 149 vstem
          -102 callgsubr
          endchar
        </CharString>
        <CharString name="yacute">
          -22 callsubr
          129 455 hstemhm
          470 423 -58 149 hintmask 11001000
          -102 callgsubr
          hintmask 00110000
          283 950 1 callgsubr
        </CharString>
        <CharString name="ycircumflex">
          -22 callsubr
          95 435 hstemhm
          211 683 -59 149 hintmask 11001000
          -102 callgsubr
          hintmask 00110000
          20 916 -43 callgsubr
        </CharString>
        <CharString name="ydieresis">
          -22 callsubr
          hstemhm
          835 149 vstemhm
          -102 callgsubr
          533 1111 -46 callgsubr
        </CharString>
        <CharString name="yen">
          373 21 -21 382 100 254 101 693 -20 hstem
          237 1175 vstem
          237 382 rmoveto
          419 hlineto
          -43 -382 rlineto
          134 hlineto
          44 382 rlineto
          425 hlineto
          12 100 rlineto
          -425 hlineto
          30 254 rlineto
          427 hlineto
          13 101 rlineto
          -377 hlineto
          516 693 rlineto
          -149 hlineto
          -393 -568 -75 -124 -49 118 -272 574 rlineto
          -147 hlineto
          336 -693 rlineto
          -368 hlineto
          -13 -101 rlineto
          415 hlineto
          -29 -254 rlineto
          -418 hlineto
          endchar
        </CharString>
        <CharString name="ygrave">
          -22 callsubr
          129 452 hstemhm
          208 409 218 149 hintmask 11001000
          -102 callgsubr
          hintmask 00110000
          302 950 -76 callgsubr
        </CharString>
        <CharString name="z">
          -17 callgsubr
          hstemhm
          -21 981 hintmask 00000000
          hintmask 11010000
          25 hmoveto
          -36 callgsubr
          hintmask 10110000
          648 828 rlineto
          hintmask 11010000
          -50 callsubr
          endchar
        </CharString>
        <CharString name="zacute">
          -17 callgsubr
          109 455 hstemhm
          -21 981 -480 423 hintmask 00010100
          543 20 callsubr
          -90 callgsubr
          hintmask 00000000
          -455 -1304 -44 callgsubr
        </CharString>
        <CharString name="zcaron">
          -17 callgsubr
          115 395 hstemhm
          -21 981 -701 712 hintmask 00010100
          501 -78 callsubr
          hintmask 00000000
          -234 -1583 -44 callgsubr
        </CharString>
        <CharString name="zdotaccent">
          -17 callgsubr
          286 13 callgsubr
          -21 981 -463 203 hintmask 00000000
          hintmask 11001000
          25 hmoveto
          -36 callgsubr
          hintmask 10101000
          648 828 rlineto
          hintmask 11001000
          -50 callsubr
          hintmask 00010100
          604 1380 rmoveto
          -104 callgsubr
          endchar
        </CharString>
        <CharString name="zero">
          168 -16 107 959 106 hstem
          111 157 731 158 vstem
          111 453 rmoveto
          -245 126 -224 302 355 263 328 376 267 -119 201 -304 -338 -285 -300 -403 vhcurveto
          157 11 rmoveto
          264 140 326 313 -4 vhcurveto
          202 -3 76 -150 -222 vvcurveto
          -283 -148 -301 -289 -204 -90 174 199 vhcurveto
          endchar
        </CharString>
      <CharString index="0">
        rmoveto
        -225 -6 106 -232 289 31 callsubr
        86 rlineto
        -115 -114 -125 -55 -109 hhcurveto
        -212 -45 -8 callgsubr
        8 hvcurveto
        231 12 481 120 331 vvcurveto
        141 -89 109 -190 -343 -237 -317 -398 -10 vhcurveto
        162 109 rmoveto
        228 21 153 265 222 hhcurveto
        99 63 -46 -104 -210 -333 -126 -225 -7 hvcurveto
        return
      </CharString>
      <CharString index="1">
        rmoveto
        -276 5 151 -163 292 hhcurveto
        344 195 172 472 61 hvcurveto
        114 903 rlineto
        -147 hlineto
        -112 -890 rlineto
        -389 -50 -139 -145 -245 hhcurveto
        -210 -101 121 201 -4 hvcurveto
        -1 57 4 62 9 72 115 911 rcurveline
        -150 hlineto
        -119 -937 -7 -59 -6 -60 1 -52 rlinecurve
        return
      </CharString>
      <CharString index="2">
        rmoveto
        -291 5 129 -169 249 hhcurveto
        333 227 352 360 -6 hvcurveto
        291 -5 -121 169 -250 hhcurveto
        -333 -234 -349 -363 6 hvcurveto
        154 3 rmoveto
        268 -5 135 329 253 hhcurveto
        172 69 -132 -219 3 hvcurveto
        -268 4 -128 -328 -250 hhcurveto
        -168 -82 127 223 -3 hvcurveto
        return
      </CharString>
      <CharString index="3">
        61 52 53 67 4 hvcurveto
        54 3 20 callgsubr
        -56 -52 -55 callsubr
        -42 51 hhcurveto
        return
      </CharString>
      <CharString index="4">
        rmoveto
        -38 -126 rlineto
        -17 40 128 -18 88 hhcurveto
        197 266 100 316 45 hvcurveto
        176 1245 -116 -36 rlineto
        19 -63 -88 17 -69 hhcurveto
        -438 -202 -426 -314 -257 101 -175 217 167 139 118 105 75 hvcurveto
        -48 -299 rlineto
        -192 -34 -113 -108 -184 hhcurveto
        -100 -90 23 25 -56 hvcurveto
        270 444 rmoveto
        -122 -68 111 223 256 152 356 311 64 71 -14 -22 53 hvcurveto
        -96 -652 rlineto
        -105 -65 -140 -153 -160 hhcurveto
        return
      </CharString>
      <CharString index="5">
        312 -56 rmoveto
        93 hlineto
        -246 -169 -127 -78 -134 hhcurveto
        -76 -36 23 9 -20 hvcurveto
        -43 -124 rlineto
        -14 37 61 -16 52 hhcurveto
        258 149 189 124 97 hvcurveto
        88 108 103 163 72 134 127 236 126 298 14 256 3 56 -1 43 -4 35 rrcurveto
        -147 hlineto
        1 -38 0 -42 -3 -55 -19 -248 -88 -274 -156 -260 -17 -30 -77 -133 -37 -62 -43 301 rcurveline
        -109 841 rlineto
        -164 hlineto
        127 -841 rlineto
        return
      </CharString>
      <CharString index="6">
        rmoveto
        -4 -41 rlineto
        42 -17 30 -53 -56 vvcurveto
        -96 -39 -62 -49 -33 vhcurveto
        -2 -20 61 -39 rlineto
        71 20 103 113 165 vvcurveto
        92 -43 93 -76 25 vhcurveto
        return
      </CharString>
      <CharString index="7">
        hintmask 00000000
        hintmask 10101000
        399 -16 rmoveto
        165 135 116 105 73 hvcurveto
        -3 vlineto
        hintmask 01101000
        -19 -202 rlineto
        131 hlineto
        157 1156 -113 -37 rlineto
        20 -63 -84 17 -67 hhcurveto
        -439 -194 -428 -313 hvcurveto
        hintmask 10101000
        -101 callsubr
        hintmask 00010100
        return
      </CharString>
      <CharString index="8">
        rmoveto
        62 51 53 66 4 hvcurveto
        55 4 20 callgsubr
        -50 -61 -51 -65 -1 hvcurveto
        -58 -1 38 -40 49 hhcurveto
        -420 hmoveto
        60 53 53 66 4 hvcurveto
        55 2 -34 40 -60 hhcurveto
        -50 -56 -51 -65 -4 hvcurveto
        -57 -3 19 callgsubr
        return
      </CharString>
      <CharString index="9">
        22 -49 -51 4 -51 hhcurveto
        -228 -140 -169 -245 -32 hvcurveto
        -18 -124 -146 -1 -22 -118 rlineto
        152 hlineto
        return
      </CharString>
      <CharString index="10">
        rmoveto
        235 125 63 35 56 hvcurveto
        -23 128 rlineto
        -39 -55 -146 -67 -165 hhcurveto
        -270 -110 249 288 -5 hvcurveto
        349 -7 169 429 392 hhcurveto
        161 73 -44 -18 42 hvcurveto
        53 126 -51 16 rlineto
        22 -67 -76 24 -129 hhcurveto
        -408 -316 -371 -548 34 callgsubr
        126 -332 381 hhcurveto
        return
      </CharString>
      <CharString index="11">
        hintmask 00000000
        hintmask 10101000
        113 266 -84 callsubr
        hintmask 01101000
        -86 callgsubr
        hintmask 10101000
        -104 callsubr
        hintmask 00010100
        return
      </CharString>
      <CharString index="12">
        hlineto
        11 127 -737 -13 78 614 479 -11 9 127 -474 -6 73 579 614 -7 6 120 rlineto
        -756 hlineto
        return
      </CharString>
      <CharString index="13">
        843 8 callsubr
        4 -20 302 214 -78 -40 callsubr
        -42 737 -62 -19 callgsubr
        hintmask 1010000010000000
        1522 hmoveto
        -83 callgsubr
        hintmask 0001000001000000
        -65 callgsubr
        -1625 -93 callsubr
        hintmask 1100101000000000
        -46 callsubr
        hintmask 0000000000000000
        -87 callsubr
        hintmask 1100010100000000
        -9 callsubr
        hintmask 1100100100000000
        -88 callgsubr
      </CharString>
      <CharString index="14">
        890 -95 callgsubr
        return
      </CharString>
      <CharString index="15">
        rmoveto
        333 299 218 -294 73 53 -203 377 rlineto
        -137 hlineto
        -343 -376 rlineto
        return
      </CharString>
      <CharString index="16">
        rmoveto
        -114 64 -58 111 113 144 88 48 40 vhcurveto
        -20 84 rlineto
        -31 -39 -116 -70 -64 hhcurveto
        -65 -14 57 59 32 7 44 9 67 hvcurveto
        87 659 rlineto
        290 hlineto
        18 119 rlineto
        -291 hlineto
        36 279 rlineto
        -126 hlineto
        -56 -279 -127 -1 -31 -118 rlineto
        135 hlineto
        -93 -731 rlineto
        -1 callgsubr
        return
      </CharString>
      <CharString index="17">
        rmoveto
        122 73 200 212 38 66 -115 104 rcurveline
        -308 -400 rlineto
        return
      </CharString>
      <CharString index="18">
        1637 -107 callsubr
        return
      </CharString>
      <CharString index="19">
        -98 callgsubr
        endchar
      </CharString>
      <CharString index="20">
        98 444 -105 callgsubr
        return
      </CharString>
      <CharString index="21">
        -29 -262 rlineto
        138 hlineto
        152 1140 rlineto
        -149 hlineto
        -95 -725 rlineto
        return
      </CharString>
      <CharString index="22">
        rmoveto
        70 101 53 168 5 143 3 97 -4 81 -27 52 -133 -35 rcurveline
        -7 -25 20 -30 12 -79 -3 -90 rlinecurve
        -5 -122 -34 -122 -32 -89 4 -20 rcurveline
        endchar
      </CharString>
      <CharString index="23">
        rmoveto
        164 112 148 133 69 hvcurveto
        -156 43 113 -125 213 31 callsubr
        87 rlineto
        -116 -114 -125 -55 -109 hhcurveto
        -212 -44 -8 callgsubr
        7 hvcurveto
        231 12 481 120 331 vvcurveto
        141 -89 109 -190 -102 -93 -28 -50 -80 vhcurveto
        68 -111 -92 10 -81 hhcurveto
        -439 -194 -428 -313 -250 70 -181 207 hvcurveto
        33 23 callsubr
        -105 -51 107 226 272 153 341 302 67 73 -21 -34 61 hvcurveto
        -126 -130 -77 -198 -5 -222 -1 -20 1 -19 1 -20 rrcurveto
        -129 -70 -102 -153 -121 hhcurveto
        454 450 rmoveto
        return
      </CharString>
      <CharString index="24">
        -29 callgsubr
        155 1144 rlineto
        -149 hlineto
        return
      </CharString>
      <CharString index="25">
        93 3 rmoveto
        -29 callgsubr
        98 722 rlineto
        150 99 173 144 120 hhcurveto
        100 35 -47 -109 -77 -20 -133 -21 -141 hvcurveto
        -17 -116 -42 -266 7 callsubr
        42 268 16 117 15 103 15 100 7 75 rrcurveto
        122 101 145 105 103 hhcurveto
        101 35 -47 -108 -82 -18 -129 -22 -140 hvcurveto
        -17 -116 -43 -266 -17 -127 rrcurveto
        -5 callsubr
        18 125 43 267 16 117 rrcurveto
        23 147 19 142 71 vvcurveto
        207 -78 77 -150 -147 -152 -104 -127 -106 vhcurveto
        155 -12 -68 76 -144 hhcurveto
        -158 -164 -124 -145 -109 hvcurveto
        return
      </CharString>
      <CharString index="26">
        -2 114 21 -143 155 hhcurveto
        106 111 79 92 33 hvcurveto
        -66 70 rlineto
        -45 -33 -42 -72 -80 -99 -35 144 -146 hhcurveto
        return
      </CharString>
      <CharString index="27">
        402 hmoveto
        144 hlineto
        75 585 592 945 rlineto
        -162 hlineto
        -428 -711 -55 -102 -41 103 -261 710 rlineto
        -161 hlineto
        373 -945 rlineto
        return
      </CharString>
      <CharString index="28">
        rmoveto
        155 hlineto
        340 860 84 236 18 -236 89 -860 rlineto
        154 hlineto
        647 1540 rlineto
        -152 hlineto
        -443 -1105 rlineto
        hintmask 11010000
        -99 -259 -20 268 -109 1096 rlineto
        -144 hlineto
        23 -226 -352 -879 -86 -259 -40 268 -146 1096 -35 callsubr
        endchar
      </CharString>
      <CharString index="29">
        -257 101 -175 217 vhcurveto
        26 23 callsubr
        -122 -68 111 223 256 152 357 311 63 69 -14 -22 52 hvcurveto
        -89 -648 rlineto
        -104 -64 -141 -159 -163 hhcurveto
        return
      </CharString>
      <CharString index="30">
        145 hmoveto
        151 hlineto
        193 1530 rlineto
        -151 hlineto
        return
      </CharString>
      <CharString index="31">
        rmoveto
        65 55 -294 397 -115 -104 58 -99 190 -184 96 -65 rlinecurve
        endchar
      </CharString>
      <CharString index="32">
        rmoveto
        330 270 rlineto
        hintmask 00010100
        -80 callsubr
        hintmask 00100100
        -340 -347 rlineto
        endchar
      </CharString>
      <CharString index="33">
        -105 callsubr
        endchar
      </CharString>
      <CharString index="34">
        rmoveto
        509 hlineto
        5 114 rlineto
        -510 hlineto
        return
      </CharString>
      <CharString index="35">
        rlineto
        9 64 97 10 69 hhcurveto
        330 128 -160 -364 5 hvcurveto
        4 -400 -196 -402 -392 -9 rrcurveto
        return
      </CharString>
      <CharString index="36">
        hmoveto
        537 hlineto
        31 107 rlineto
        -142 84 -198 270 308 vvcurveto
        435 254 223 323 247 256 -158 -358 -341 -240 -336 -233 -127 vhcurveto
        16 -107 rlineto
        578 hlineto
        hintmask 01111000
        10 123 rlineto
        -415 hlineto
        244 168 191 369 265 vvcurveto
        376 -284 245 -356 -420 -319 -263 -510 vhcurveto
        hintmask 10111000
        -270 182 -283 146 -104 vhcurveto
        -394 hlineto
        endchar
      </CharString>
      <CharString index="37">
        31 -3 54 -3 28 -1 470 -12 313 421 -7 529 rrcurveto
        371 -5 -164 253 -407 hhcurveto
        return
      </CharString>
      <CharString index="38">
        -16 callsubr
        hintmask 01100000
        -33 callgsubr
        hintmask 10100000
        -73 callsubr
        return
      </CharString>
      <CharString index="39">
        rmoveto
        81 53 76 47 89 121 70 -174 153 hhcurveto
        151 116 107 93 28 hvcurveto
        -56 57 rlineto
        -64 -41 -68 -66 -101 -122 -70 173 -152 hhcurveto
        -154 -121 -118 -79 -27 hvcurveto
        return
      </CharString>
      <CharString index="40">
        -20 -115 rlineto
        -16 22 71 -13 53 hhcurveto
        143 120 69 215 return
      </CharString>
      <CharString index="41">
        605 -17 -106 callsubr
        return
      </CharString>
      <CharString index="42">
        -74 callsubr
        hintmask 0000000000000000
        return
      </CharString>
      <CharString index="43">
        80 635 rlineto
        6 51 127 10 51 hhcurveto
        214 112 -81 -162 3 hvcurveto
        -239 5 -141 -171 -234 hhcurveto
        return
      </CharString>
      <CharString index="44">
        118 341 107 493 113 return
      </CharString>
      <CharString index="45">
        266 -15 115 -78 -21 732 100 602 28 callgsubr
        hintmask 01110100
        121 1 rmoveto
        -22 callgsubr
        hintmask 10110100
        -70 callgsubr
        hintmask 10101100
        -20 callgsubr
        -88 -698 rlineto
        return
      </CharString>
      <CharString index="46">
        hlineto
        179 1419 443 -9 17 120 rlineto
        -1044 hlineto
        -17 -120 451 9 return
      </CharString>
      <CharString index="47">
        rmoveto
        110 64 190 165 58 106 -103 90 rcurveline
        -312 -375 rlineto
        -341 -52 rmoveto
        106 76 181 151 54 109 -101 89 rcurveline
        -312 -375 rlineto
        endchar
      </CharString>
      <CharString index="48">
        123 hlineto
        947 1530 rlineto
        -123 hlineto
        -879 -785 rmoveto
        252 157 221 219 172 -82 123 -198 -239 -171 -213 -212 -2 callgsubr
        hvcurveto
        22 94 rmoveto
        9 callgsubr
        141 98 189 168 113 58 -82 -125 -139 -87 -201 -170 hvcurveto
        return
      </CharString>
      <CharString index="49">
        110 vstem
        196 938 rmoveto
        -469 373 -379 467 468 373 379 469 469 -372 376 -469 -468 -372 -376 -469 vhcurveto
        110 hmoveto
        411 314 337 416 417 314 -337 -411 -413 -315 -335 -416 -415 -315 335 413 vhcurveto
        return
      </CharString>
      <CharString index="50">
        63 -19 130 -90 -30 callgsubr
        return
      </CharString>
      <CharString index="51">
        533 -465 rmoveto
        -2 callgsubr
        252 157 221 219 172 -82 123 -198 -239 -171 -213 -212 vhcurveto
        123 1 rmoveto
        141 98 189 168 113 58 -82 -125 -139 -87 -201 -170 9 callgsubr
        vhcurveto
        endchar
      </CharString>
      <CharString index="52">
        -20 -208 rlineto
        132 hlineto
        224 1637 rlineto
        -148 hlineto
        -70 -506 rlineto
        14 -56 -66 11 -55 hhcurveto
        -438 -202 -426 -314 hvcurveto
        return
      </CharString>
      <CharString index="53">
        -16 113 947 112 return
      </CharString>
      <CharString index="54">
        268 -17 116 1328 120 return
      </CharString>
      <CharString index="55">
        141 53 120 101 4 147 rrcurveto
        118 4 -110 98 -194 hhcurveto
        -144 -127 -42 -79 -114 hvcurveto
        35 -87 84 56 94 42 116 2 rlinecurve
        139 2 48 -59 -79 vvcurveto
        -158 -175 -73 -191 -46 vhcurveto
        -16 -111 27 8 137 32 19 6 rlinecurve
        return
      </CharString>
      <CharString index="56">
        -29 callgsubr
        91 680 rlineto
        191 77 162 127 110 hhcurveto
        47 26 -4 -9 19 hvcurveto
        return
      </CharString>
      <CharString index="57">
        -19 66 rlineto
        -903 hlineto
        -16 -128 744 11 -151 -186 -822 -1157 rlineto
        return
      </CharString>
      <CharString index="58">
        -546 21 -21 1144 -20 return
      </CharString>
      <CharString index="59">
        250 -17 123 1424 -20 return
      </CharString>
      <CharString index="60">
        rmoveto
        142 hlineto
        138 992 -56 17 -50 -41 -216 -104 -138 -36 rlinecurve
        5 -95 40 12 231 61 19 13 rlinecurve
        return
      </CharString>
      <CharString index="61">
        -99 callsubr
        endchar
      </CharString>
      <CharString index="62">
        vvcurveto
        -143 -70 -50 -100 -43 -28 9 9 -17 vhcurveto
        return
      </CharString>
      <CharString index="63">
        rmoveto
        -36 callgsubr
        hintmask 11001000
        648 828 rlineto
        hintmask 10101000
        -50 callsubr
        endchar
      </CharString>
      <CharString index="64">
        -92 callgsubr
        endchar
      </CharString>
      <CharString index="65">
        -93 -87 -4 -31 rlineto
        70 -50 32 -96 -80 vvcurveto
        return
      </CharString>
      <CharString index="66">
        90 127 rmoveto
        54 -25 40 -79 -104 vvcurveto
        -162 -96 -120 -108 -53 vhcurveto
        -2 -18 55 -67 rlineto
        184 71 126 176 223 vvcurveto
        102 -36 135 -132 59 vhcurveto
        -79 -97 rlineto
        return
      </CharString>
      <CharString index="67">
        11 -12 -32 2 -20 hhcurveto
        -180 -147 -158 -109 -55 hvcurveto
        return
      </CharString>
      <CharString index="68">
        25 -54 callgsubr
        return
      </CharString>
      <CharString index="69">
        -92 -734 rmoveto
        78 620 rlineto
        3 51 72 3 139 hhcurveto
        205 137 -88 -179 3 hvcurveto
        -283 3 -214 -95 -269 hhcurveto
        -40 -123 7 12 -42 hvcurveto
        endchar
      </CharString>
</ttFont>
